G04 #@! TF.GenerationSoftware,KiCad,Pcbnew,(5.1.2)-2*
G04 #@! TF.CreationDate,2019-08-14T20:47:52-05:00*
G04 #@! TF.ProjectId,CorsairController,436f7273-6169-4724-936f-6e74726f6c6c,rev?*
G04 #@! TF.SameCoordinates,Original*
G04 #@! TF.FileFunction,Legend,Top*
G04 #@! TF.FilePolarity,Positive*
%FSLAX46Y46*%
G04 Gerber Fmt 4.6, Leading zero omitted, Abs format (unit mm)*
G04 Created by KiCad (PCBNEW (5.1.2)-2) date 2019-08-14 20:47:52*
%MOMM*%
%LPD*%
G04 APERTURE LIST*
%ADD10C,0.250000*%
%ADD11C,0.187500*%
G04 APERTURE END LIST*
D10*
X117356285Y-145609714D02*
X117284857Y-145681142D01*
X117070571Y-145752571D01*
X116927714Y-145752571D01*
X116713428Y-145681142D01*
X116570571Y-145538285D01*
X116499142Y-145395428D01*
X116427714Y-145109714D01*
X116427714Y-144895428D01*
X116499142Y-144609714D01*
X116570571Y-144466857D01*
X116713428Y-144324000D01*
X116927714Y-144252571D01*
X117070571Y-144252571D01*
X117284857Y-144324000D01*
X117356285Y-144395428D01*
X118213428Y-145752571D02*
X118070571Y-145681142D01*
X117999142Y-145609714D01*
X117927714Y-145466857D01*
X117927714Y-145038285D01*
X117999142Y-144895428D01*
X118070571Y-144824000D01*
X118213428Y-144752571D01*
X118427714Y-144752571D01*
X118570571Y-144824000D01*
X118642000Y-144895428D01*
X118713428Y-145038285D01*
X118713428Y-145466857D01*
X118642000Y-145609714D01*
X118570571Y-145681142D01*
X118427714Y-145752571D01*
X118213428Y-145752571D01*
X119356285Y-145752571D02*
X119356285Y-144752571D01*
X119356285Y-145038285D02*
X119427714Y-144895428D01*
X119499142Y-144824000D01*
X119642000Y-144752571D01*
X119784857Y-144752571D01*
X120213428Y-145681142D02*
X120356285Y-145752571D01*
X120642000Y-145752571D01*
X120784857Y-145681142D01*
X120856285Y-145538285D01*
X120856285Y-145466857D01*
X120784857Y-145324000D01*
X120642000Y-145252571D01*
X120427714Y-145252571D01*
X120284857Y-145181142D01*
X120213428Y-145038285D01*
X120213428Y-144966857D01*
X120284857Y-144824000D01*
X120427714Y-144752571D01*
X120642000Y-144752571D01*
X120784857Y-144824000D01*
X122142000Y-145752571D02*
X122142000Y-144966857D01*
X122070571Y-144824000D01*
X121927714Y-144752571D01*
X121642000Y-144752571D01*
X121499142Y-144824000D01*
X122142000Y-145681142D02*
X121999142Y-145752571D01*
X121642000Y-145752571D01*
X121499142Y-145681142D01*
X121427714Y-145538285D01*
X121427714Y-145395428D01*
X121499142Y-145252571D01*
X121642000Y-145181142D01*
X121999142Y-145181142D01*
X122142000Y-145109714D01*
X122856285Y-145752571D02*
X122856285Y-144752571D01*
X122856285Y-144252571D02*
X122784857Y-144324000D01*
X122856285Y-144395428D01*
X122927714Y-144324000D01*
X122856285Y-144252571D01*
X122856285Y-144395428D01*
X123570571Y-145752571D02*
X123570571Y-144752571D01*
X123570571Y-145038285D02*
X123642000Y-144895428D01*
X123713428Y-144824000D01*
X123856285Y-144752571D01*
X123999142Y-144752571D01*
X115784857Y-148109714D02*
X115713428Y-148181142D01*
X115499142Y-148252571D01*
X115356285Y-148252571D01*
X115142000Y-148181142D01*
X114999142Y-148038285D01*
X114927714Y-147895428D01*
X114856285Y-147609714D01*
X114856285Y-147395428D01*
X114927714Y-147109714D01*
X114999142Y-146966857D01*
X115142000Y-146824000D01*
X115356285Y-146752571D01*
X115499142Y-146752571D01*
X115713428Y-146824000D01*
X115784857Y-146895428D01*
X116642000Y-148252571D02*
X116499142Y-148181142D01*
X116427714Y-148109714D01*
X116356285Y-147966857D01*
X116356285Y-147538285D01*
X116427714Y-147395428D01*
X116499142Y-147324000D01*
X116642000Y-147252571D01*
X116856285Y-147252571D01*
X116999142Y-147324000D01*
X117070571Y-147395428D01*
X117142000Y-147538285D01*
X117142000Y-147966857D01*
X117070571Y-148109714D01*
X116999142Y-148181142D01*
X116856285Y-148252571D01*
X116642000Y-148252571D01*
X117784857Y-147252571D02*
X117784857Y-148252571D01*
X117784857Y-147395428D02*
X117856285Y-147324000D01*
X117999142Y-147252571D01*
X118213428Y-147252571D01*
X118356285Y-147324000D01*
X118427714Y-147466857D01*
X118427714Y-148252571D01*
X118927714Y-147252571D02*
X119499142Y-147252571D01*
X119142000Y-146752571D02*
X119142000Y-148038285D01*
X119213428Y-148181142D01*
X119356285Y-148252571D01*
X119499142Y-148252571D01*
X119999142Y-148252571D02*
X119999142Y-147252571D01*
X119999142Y-147538285D02*
X120070571Y-147395428D01*
X120142000Y-147324000D01*
X120284857Y-147252571D01*
X120427714Y-147252571D01*
X121142000Y-148252571D02*
X120999142Y-148181142D01*
X120927714Y-148109714D01*
X120856285Y-147966857D01*
X120856285Y-147538285D01*
X120927714Y-147395428D01*
X120999142Y-147324000D01*
X121142000Y-147252571D01*
X121356285Y-147252571D01*
X121499142Y-147324000D01*
X121570571Y-147395428D01*
X121642000Y-147538285D01*
X121642000Y-147966857D01*
X121570571Y-148109714D01*
X121499142Y-148181142D01*
X121356285Y-148252571D01*
X121142000Y-148252571D01*
X122499142Y-148252571D02*
X122356285Y-148181142D01*
X122284857Y-148038285D01*
X122284857Y-146752571D01*
X123284857Y-148252571D02*
X123142000Y-148181142D01*
X123070571Y-148038285D01*
X123070571Y-146752571D01*
X124427714Y-148181142D02*
X124284857Y-148252571D01*
X123999142Y-148252571D01*
X123856285Y-148181142D01*
X123784857Y-148038285D01*
X123784857Y-147466857D01*
X123856285Y-147324000D01*
X123999142Y-147252571D01*
X124284857Y-147252571D01*
X124427714Y-147324000D01*
X124499142Y-147466857D01*
X124499142Y-147609714D01*
X123784857Y-147752571D01*
X125142000Y-148252571D02*
X125142000Y-147252571D01*
X125142000Y-147538285D02*
X125213428Y-147395428D01*
X125284857Y-147324000D01*
X125427714Y-147252571D01*
X125570571Y-147252571D01*
X116356285Y-149752571D02*
X116713428Y-150752571D01*
X117070571Y-149752571D01*
X119070571Y-149252571D02*
X119213428Y-149252571D01*
X119356285Y-149324000D01*
X119427714Y-149395428D01*
X119499142Y-149538285D01*
X119570571Y-149824000D01*
X119570571Y-150181142D01*
X119499142Y-150466857D01*
X119427714Y-150609714D01*
X119356285Y-150681142D01*
X119213428Y-150752571D01*
X119070571Y-150752571D01*
X118927714Y-150681142D01*
X118856285Y-150609714D01*
X118784857Y-150466857D01*
X118713428Y-150181142D01*
X118713428Y-149824000D01*
X118784857Y-149538285D01*
X118856285Y-149395428D01*
X118927714Y-149324000D01*
X119070571Y-149252571D01*
X120213428Y-150609714D02*
X120284857Y-150681142D01*
X120213428Y-150752571D01*
X120142000Y-150681142D01*
X120213428Y-150609714D01*
X120213428Y-150752571D01*
X121713428Y-150752571D02*
X120856285Y-150752571D01*
X121284857Y-150752571D02*
X121284857Y-149252571D01*
X121142000Y-149466857D01*
X120999142Y-149609714D01*
X120856285Y-149681142D01*
X122356285Y-150609714D02*
X122427714Y-150681142D01*
X122356285Y-150752571D01*
X122284857Y-150681142D01*
X122356285Y-150609714D01*
X122356285Y-150752571D01*
X123713428Y-149752571D02*
X123713428Y-150752571D01*
X123356285Y-149181142D02*
X122999142Y-150252571D01*
X123927714Y-150252571D01*
D11*
X155190000Y-130810000D02*
X154180000Y-130810000D01*
X155190000Y-125730000D02*
X155190000Y-130810000D01*
X154180000Y-125730000D02*
X155190000Y-125730000D01*
X154080000Y-124380000D02*
X160080000Y-124380000D01*
X154080000Y-134680000D02*
X154080000Y-124380000D01*
X160030000Y-134680000D02*
X154080000Y-134680000D01*
X160030000Y-131480000D02*
X160030000Y-134680000D01*
X160080000Y-124380000D02*
X160080000Y-130130000D01*
X155190000Y-112649000D02*
X154180000Y-112649000D01*
X155190000Y-107569000D02*
X155190000Y-112649000D01*
X154180000Y-107569000D02*
X155190000Y-107569000D01*
X154080000Y-106219000D02*
X160080000Y-106219000D01*
X154080000Y-116519000D02*
X154080000Y-106219000D01*
X160030000Y-116519000D02*
X154080000Y-116519000D01*
X160030000Y-113319000D02*
X160030000Y-116519000D01*
X160080000Y-106219000D02*
X160080000Y-111969000D01*
X129032000Y-138557000D02*
X111252000Y-138557000D01*
X111252000Y-105537000D02*
X129032000Y-105537000D01*
X123952000Y-139827000D02*
X116332000Y-139827000D01*
X116332000Y-139827000D02*
X116332000Y-138557000D01*
X123952000Y-139827000D02*
X123952000Y-138557000D01*
X111252000Y-138557000D02*
X111252000Y-105537000D01*
X129032000Y-138557000D02*
X129032000Y-105537000D01*
X112970000Y-82864000D02*
X112970000Y-81534000D01*
X114300000Y-82864000D02*
X112970000Y-82864000D01*
X115570000Y-82864000D02*
X115570000Y-80204000D01*
X115570000Y-80204000D02*
X123250000Y-80204000D01*
X115570000Y-82864000D02*
X123250000Y-82864000D01*
X123250000Y-82864000D02*
X123250000Y-80204000D01*
X112970000Y-96072000D02*
X112970000Y-94742000D01*
X114300000Y-96072000D02*
X112970000Y-96072000D01*
X115570000Y-96072000D02*
X115570000Y-93412000D01*
X115570000Y-93412000D02*
X123250000Y-93412000D01*
X115570000Y-96072000D02*
X123250000Y-96072000D01*
X123250000Y-96072000D02*
X123250000Y-93412000D01*
X144466000Y-134045000D02*
X144466000Y-132715000D01*
X145796000Y-134045000D02*
X144466000Y-134045000D01*
X147066000Y-134045000D02*
X147066000Y-131385000D01*
X147066000Y-131385000D02*
X152206000Y-131385000D01*
X147066000Y-134045000D02*
X152206000Y-134045000D01*
X152206000Y-134045000D02*
X152206000Y-131385000D01*
X144466000Y-116011000D02*
X144466000Y-114681000D01*
X145796000Y-116011000D02*
X144466000Y-116011000D01*
X147066000Y-116011000D02*
X147066000Y-113351000D01*
X147066000Y-113351000D02*
X152206000Y-113351000D01*
X147066000Y-116011000D02*
X152206000Y-116011000D01*
X152206000Y-116011000D02*
X152206000Y-113351000D01*
X151457000Y-83471000D02*
X151457000Y-84981000D01*
X147756000Y-83471000D02*
X147756000Y-84981000D01*
X144486000Y-84981000D02*
X154726000Y-84981000D01*
X154726000Y-83471000D02*
X154726000Y-88112000D01*
X144486000Y-83471000D02*
X144486000Y-88112000D01*
X144486000Y-88112000D02*
X154726000Y-88112000D01*
X144486000Y-83471000D02*
X154726000Y-83471000D01*
X151457000Y-89059000D02*
X151457000Y-90569000D01*
X147756000Y-89059000D02*
X147756000Y-90569000D01*
X144486000Y-90569000D02*
X154726000Y-90569000D01*
X154726000Y-89059000D02*
X154726000Y-93700000D01*
X144486000Y-89059000D02*
X144486000Y-93700000D01*
X144486000Y-93700000D02*
X154726000Y-93700000D01*
X144486000Y-89059000D02*
X154726000Y-89059000D01*
X150187000Y-123095000D02*
X150187000Y-124605000D01*
X146486000Y-123095000D02*
X146486000Y-124605000D01*
X143216000Y-124605000D02*
X153456000Y-124605000D01*
X153456000Y-123095000D02*
X153456000Y-127736000D01*
X143216000Y-123095000D02*
X143216000Y-127736000D01*
X143216000Y-127736000D02*
X153456000Y-127736000D01*
X143216000Y-123095000D02*
X153456000Y-123095000D01*
X150187000Y-104807000D02*
X150187000Y-106317000D01*
X146486000Y-104807000D02*
X146486000Y-106317000D01*
X143216000Y-106317000D02*
X153456000Y-106317000D01*
X153456000Y-104807000D02*
X153456000Y-109448000D01*
X143216000Y-104807000D02*
X143216000Y-109448000D01*
X143216000Y-109448000D02*
X153456000Y-109448000D01*
X143216000Y-104807000D02*
X153456000Y-104807000D01*
X151457000Y-94647000D02*
X151457000Y-96157000D01*
X147756000Y-94647000D02*
X147756000Y-96157000D01*
X144486000Y-96157000D02*
X154726000Y-96157000D01*
X154726000Y-94647000D02*
X154726000Y-99288000D01*
X144486000Y-94647000D02*
X144486000Y-99288000D01*
X144486000Y-99288000D02*
X154726000Y-99288000D01*
X144486000Y-94647000D02*
X154726000Y-94647000D01*
X150405000Y-155269500D02*
X150405000Y-146894501D01*
X150405000Y-146894501D02*
X139155000Y-146894500D01*
X139155000Y-146894500D02*
X139155000Y-155269499D01*
X139155000Y-155269499D02*
X150405000Y-155269500D01*
X157420000Y-85665000D02*
X158750000Y-85665000D01*
X157420000Y-86995000D02*
X157420000Y-85665000D01*
X157420000Y-88265000D02*
X160080000Y-88265000D01*
X160080000Y-88265000D02*
X160080000Y-95945000D01*
X157420000Y-88265000D02*
X157420000Y-95945000D01*
X157420000Y-95945000D02*
X160080000Y-95945000D01*
X155000000Y-147634000D02*
X153670000Y-147634000D01*
X155000000Y-146304000D02*
X155000000Y-147634000D01*
X155000000Y-145034000D02*
X152340000Y-145034000D01*
X152340000Y-145034000D02*
X152340000Y-139894000D01*
X155000000Y-145034000D02*
X155000000Y-139894000D01*
X155000000Y-139894000D02*
X152340000Y-139894000D01*
X115510000Y-89468000D02*
X115510000Y-88138000D01*
X116840000Y-89468000D02*
X115510000Y-89468000D01*
X118110000Y-89468000D02*
X118110000Y-86808000D01*
X118110000Y-86808000D02*
X123250000Y-86808000D01*
X118110000Y-89468000D02*
X123250000Y-89468000D01*
X123250000Y-89468000D02*
X123250000Y-86808000D01*
X115510000Y-102930000D02*
X115510000Y-101600000D01*
X116840000Y-102930000D02*
X115510000Y-102930000D01*
X118110000Y-102930000D02*
X118110000Y-100270000D01*
X118110000Y-100270000D02*
X123250000Y-100270000D01*
X118110000Y-102930000D02*
X123250000Y-102930000D01*
X123250000Y-102930000D02*
X123250000Y-100270000D01*
X135950000Y-153476000D02*
X134620000Y-153476000D01*
X135950000Y-152146000D02*
X135950000Y-153476000D01*
X135950000Y-150876000D02*
X133290000Y-150876000D01*
X133290000Y-150876000D02*
X133290000Y-140656000D01*
X135950000Y-150876000D02*
X135950000Y-140656000D01*
X135950000Y-140656000D02*
X133290000Y-140656000D01*
D10*
X160976571Y-131801428D02*
X162048000Y-131801428D01*
X162262285Y-131872857D01*
X162405142Y-132015714D01*
X162476571Y-132230000D01*
X162476571Y-132372857D01*
X161905142Y-131087142D02*
X161905142Y-129944285D01*
X161690857Y-128730000D02*
X161690857Y-129230000D01*
X162476571Y-129230000D02*
X160976571Y-129230000D01*
X160976571Y-128515714D01*
X161119428Y-128015714D02*
X161048000Y-127944285D01*
X160976571Y-127801428D01*
X160976571Y-127444285D01*
X161048000Y-127301428D01*
X161119428Y-127230000D01*
X161262285Y-127158571D01*
X161405142Y-127158571D01*
X161619428Y-127230000D01*
X162476571Y-128087142D01*
X162476571Y-127158571D01*
X160976571Y-113640428D02*
X162048000Y-113640428D01*
X162262285Y-113711857D01*
X162405142Y-113854714D01*
X162476571Y-114069000D01*
X162476571Y-114211857D01*
X161905142Y-112926142D02*
X161905142Y-111783285D01*
X161690857Y-110569000D02*
X161690857Y-111069000D01*
X162476571Y-111069000D02*
X160976571Y-111069000D01*
X160976571Y-110354714D01*
X162476571Y-108997571D02*
X162476571Y-109854714D01*
X162476571Y-109426142D02*
X160976571Y-109426142D01*
X161190857Y-109569000D01*
X161333714Y-109711857D01*
X161405142Y-109854714D01*
X118999142Y-140656571D02*
X118999142Y-141870857D01*
X119070571Y-142013714D01*
X119142000Y-142085142D01*
X119284857Y-142156571D01*
X119570571Y-142156571D01*
X119713428Y-142085142D01*
X119784857Y-142013714D01*
X119856285Y-141870857D01*
X119856285Y-140656571D01*
X121356285Y-142156571D02*
X120499142Y-142156571D01*
X120927714Y-142156571D02*
X120927714Y-140656571D01*
X120784857Y-140870857D01*
X120642000Y-141013714D01*
X120499142Y-141085142D01*
X114142000Y-115232571D02*
X114142000Y-113732571D01*
X114713428Y-113732571D01*
X114856285Y-113804000D01*
X114927714Y-113875428D01*
X114999142Y-114018285D01*
X114999142Y-114232571D01*
X114927714Y-114375428D01*
X114856285Y-114446857D01*
X114713428Y-114518285D01*
X114142000Y-114518285D01*
X116499142Y-115232571D02*
X115999142Y-114518285D01*
X115642000Y-115232571D02*
X115642000Y-113732571D01*
X116213428Y-113732571D01*
X116356285Y-113804000D01*
X116427714Y-113875428D01*
X116499142Y-114018285D01*
X116499142Y-114232571D01*
X116427714Y-114375428D01*
X116356285Y-114446857D01*
X116213428Y-114518285D01*
X115642000Y-114518285D01*
X117427714Y-113732571D02*
X117713428Y-113732571D01*
X117856285Y-113804000D01*
X117999142Y-113946857D01*
X118070571Y-114232571D01*
X118070571Y-114732571D01*
X117999142Y-115018285D01*
X117856285Y-115161142D01*
X117713428Y-115232571D01*
X117427714Y-115232571D01*
X117284857Y-115161142D01*
X117142000Y-115018285D01*
X117070571Y-114732571D01*
X117070571Y-114232571D01*
X117142000Y-113946857D01*
X117284857Y-113804000D01*
X117427714Y-113732571D01*
X118356285Y-115375428D02*
X119499142Y-115375428D01*
X119856285Y-115232571D02*
X119856285Y-113732571D01*
X120356285Y-114804000D01*
X120856285Y-113732571D01*
X120856285Y-115232571D01*
X121570571Y-115232571D02*
X121570571Y-113732571D01*
X123142000Y-115089714D02*
X123070571Y-115161142D01*
X122856285Y-115232571D01*
X122713428Y-115232571D01*
X122499142Y-115161142D01*
X122356285Y-115018285D01*
X122284857Y-114875428D01*
X122213428Y-114589714D01*
X122213428Y-114375428D01*
X122284857Y-114089714D01*
X122356285Y-113946857D01*
X122499142Y-113804000D01*
X122713428Y-113732571D01*
X122856285Y-113732571D01*
X123070571Y-113804000D01*
X123142000Y-113875428D01*
X124642000Y-115232571D02*
X124142000Y-114518285D01*
X123784857Y-115232571D02*
X123784857Y-113732571D01*
X124356285Y-113732571D01*
X124499142Y-113804000D01*
X124570571Y-113875428D01*
X124642000Y-114018285D01*
X124642000Y-114232571D01*
X124570571Y-114375428D01*
X124499142Y-114446857D01*
X124356285Y-114518285D01*
X123784857Y-114518285D01*
X125570571Y-113732571D02*
X125856285Y-113732571D01*
X125999142Y-113804000D01*
X126142000Y-113946857D01*
X126213428Y-114232571D01*
X126213428Y-114732571D01*
X126142000Y-115018285D01*
X125999142Y-115161142D01*
X125856285Y-115232571D01*
X125570571Y-115232571D01*
X125427714Y-115161142D01*
X125284857Y-115018285D01*
X125213428Y-114732571D01*
X125213428Y-114232571D01*
X125284857Y-113946857D01*
X125427714Y-113804000D01*
X125570571Y-113732571D01*
D11*
X158813619Y-81591476D02*
X158813619Y-80341476D01*
X158813619Y-80936714D02*
X159527904Y-80936714D01*
X159527904Y-81591476D02*
X159527904Y-80341476D01*
X160658857Y-80758142D02*
X160658857Y-81591476D01*
X160361238Y-80281952D02*
X160063619Y-81174809D01*
X160837428Y-81174809D01*
X108013619Y-81591476D02*
X108013619Y-80341476D01*
X108013619Y-80936714D02*
X108727904Y-80936714D01*
X108727904Y-81591476D02*
X108727904Y-80341476D01*
X109204095Y-80341476D02*
X109977904Y-80341476D01*
X109561238Y-80817666D01*
X109739809Y-80817666D01*
X109858857Y-80877190D01*
X109918380Y-80936714D01*
X109977904Y-81055761D01*
X109977904Y-81353380D01*
X109918380Y-81472428D01*
X109858857Y-81531952D01*
X109739809Y-81591476D01*
X109382666Y-81591476D01*
X109263619Y-81531952D01*
X109204095Y-81472428D01*
X108013619Y-148139476D02*
X108013619Y-146889476D01*
X108013619Y-147484714D02*
X108727904Y-147484714D01*
X108727904Y-148139476D02*
X108727904Y-146889476D01*
X109263619Y-147008523D02*
X109323142Y-146949000D01*
X109442190Y-146889476D01*
X109739809Y-146889476D01*
X109858857Y-146949000D01*
X109918380Y-147008523D01*
X109977904Y-147127571D01*
X109977904Y-147246619D01*
X109918380Y-147425190D01*
X109204095Y-148139476D01*
X109977904Y-148139476D01*
X158813619Y-148139476D02*
X158813619Y-146889476D01*
X158813619Y-147484714D02*
X159527904Y-147484714D01*
X159527904Y-148139476D02*
X159527904Y-146889476D01*
X160777904Y-148139476D02*
X160063619Y-148139476D01*
X160420761Y-148139476D02*
X160420761Y-146889476D01*
X160301714Y-147068047D01*
X160182666Y-147187095D01*
X160063619Y-147246619D01*
D10*
X113788571Y-83252571D02*
X113788571Y-84324000D01*
X113717142Y-84538285D01*
X113574285Y-84681142D01*
X113360000Y-84752571D01*
X113217142Y-84752571D01*
X114502857Y-84181142D02*
X115645714Y-84181142D01*
X116288571Y-84324000D02*
X117002857Y-84324000D01*
X116145714Y-84752571D02*
X116645714Y-83252571D01*
X117145714Y-84752571D01*
X118502857Y-84752571D02*
X118002857Y-84038285D01*
X117645714Y-84752571D02*
X117645714Y-83252571D01*
X118217142Y-83252571D01*
X118360000Y-83324000D01*
X118431428Y-83395428D01*
X118502857Y-83538285D01*
X118502857Y-83752571D01*
X118431428Y-83895428D01*
X118360000Y-83966857D01*
X118217142Y-84038285D01*
X117645714Y-84038285D01*
X119931428Y-83324000D02*
X119788571Y-83252571D01*
X119574285Y-83252571D01*
X119360000Y-83324000D01*
X119217142Y-83466857D01*
X119145714Y-83609714D01*
X119074285Y-83895428D01*
X119074285Y-84109714D01*
X119145714Y-84395428D01*
X119217142Y-84538285D01*
X119360000Y-84681142D01*
X119574285Y-84752571D01*
X119717142Y-84752571D01*
X119931428Y-84681142D01*
X120002857Y-84609714D01*
X120002857Y-84109714D01*
X119717142Y-84109714D01*
X121145714Y-83966857D02*
X121360000Y-84038285D01*
X121431428Y-84109714D01*
X121502857Y-84252571D01*
X121502857Y-84466857D01*
X121431428Y-84609714D01*
X121360000Y-84681142D01*
X121217142Y-84752571D01*
X120645714Y-84752571D01*
X120645714Y-83252571D01*
X121145714Y-83252571D01*
X121288571Y-83324000D01*
X121360000Y-83395428D01*
X121431428Y-83538285D01*
X121431428Y-83681142D01*
X121360000Y-83824000D01*
X121288571Y-83895428D01*
X121145714Y-83966857D01*
X120645714Y-83966857D01*
X122074285Y-83395428D02*
X122145714Y-83324000D01*
X122288571Y-83252571D01*
X122645714Y-83252571D01*
X122788571Y-83324000D01*
X122860000Y-83395428D01*
X122931428Y-83538285D01*
X122931428Y-83681142D01*
X122860000Y-83895428D01*
X122002857Y-84752571D01*
X122931428Y-84752571D01*
X113788571Y-96460571D02*
X113788571Y-97532000D01*
X113717142Y-97746285D01*
X113574285Y-97889142D01*
X113360000Y-97960571D01*
X113217142Y-97960571D01*
X114502857Y-97389142D02*
X115645714Y-97389142D01*
X116288571Y-97532000D02*
X117002857Y-97532000D01*
X116145714Y-97960571D02*
X116645714Y-96460571D01*
X117145714Y-97960571D01*
X118502857Y-97960571D02*
X118002857Y-97246285D01*
X117645714Y-97960571D02*
X117645714Y-96460571D01*
X118217142Y-96460571D01*
X118360000Y-96532000D01*
X118431428Y-96603428D01*
X118502857Y-96746285D01*
X118502857Y-96960571D01*
X118431428Y-97103428D01*
X118360000Y-97174857D01*
X118217142Y-97246285D01*
X117645714Y-97246285D01*
X119931428Y-96532000D02*
X119788571Y-96460571D01*
X119574285Y-96460571D01*
X119360000Y-96532000D01*
X119217142Y-96674857D01*
X119145714Y-96817714D01*
X119074285Y-97103428D01*
X119074285Y-97317714D01*
X119145714Y-97603428D01*
X119217142Y-97746285D01*
X119360000Y-97889142D01*
X119574285Y-97960571D01*
X119717142Y-97960571D01*
X119931428Y-97889142D01*
X120002857Y-97817714D01*
X120002857Y-97317714D01*
X119717142Y-97317714D01*
X121145714Y-97174857D02*
X121360000Y-97246285D01*
X121431428Y-97317714D01*
X121502857Y-97460571D01*
X121502857Y-97674857D01*
X121431428Y-97817714D01*
X121360000Y-97889142D01*
X121217142Y-97960571D01*
X120645714Y-97960571D01*
X120645714Y-96460571D01*
X121145714Y-96460571D01*
X121288571Y-96532000D01*
X121360000Y-96603428D01*
X121431428Y-96746285D01*
X121431428Y-96889142D01*
X121360000Y-97032000D01*
X121288571Y-97103428D01*
X121145714Y-97174857D01*
X120645714Y-97174857D01*
X122931428Y-97960571D02*
X122074285Y-97960571D01*
X122502857Y-97960571D02*
X122502857Y-96460571D01*
X122360000Y-96674857D01*
X122217142Y-96817714D01*
X122074285Y-96889142D01*
X146336000Y-136243142D02*
X146550285Y-136314571D01*
X146907428Y-136314571D01*
X147050285Y-136243142D01*
X147121714Y-136171714D01*
X147193142Y-136028857D01*
X147193142Y-135886000D01*
X147121714Y-135743142D01*
X147050285Y-135671714D01*
X146907428Y-135600285D01*
X146621714Y-135528857D01*
X146478857Y-135457428D01*
X146407428Y-135386000D01*
X146336000Y-135243142D01*
X146336000Y-135100285D01*
X146407428Y-134957428D01*
X146478857Y-134886000D01*
X146621714Y-134814571D01*
X146978857Y-134814571D01*
X147193142Y-134886000D01*
X147693142Y-134814571D02*
X148050285Y-136314571D01*
X148336000Y-135243142D01*
X148621714Y-136314571D01*
X148978857Y-134814571D01*
X149478857Y-134957428D02*
X149550285Y-134886000D01*
X149693142Y-134814571D01*
X150050285Y-134814571D01*
X150193142Y-134886000D01*
X150264571Y-134957428D01*
X150336000Y-135100285D01*
X150336000Y-135243142D01*
X150264571Y-135457428D01*
X149407428Y-136314571D01*
X150336000Y-136314571D01*
X146336000Y-118209142D02*
X146550285Y-118280571D01*
X146907428Y-118280571D01*
X147050285Y-118209142D01*
X147121714Y-118137714D01*
X147193142Y-117994857D01*
X147193142Y-117852000D01*
X147121714Y-117709142D01*
X147050285Y-117637714D01*
X146907428Y-117566285D01*
X146621714Y-117494857D01*
X146478857Y-117423428D01*
X146407428Y-117352000D01*
X146336000Y-117209142D01*
X146336000Y-117066285D01*
X146407428Y-116923428D01*
X146478857Y-116852000D01*
X146621714Y-116780571D01*
X146978857Y-116780571D01*
X147193142Y-116852000D01*
X147693142Y-116780571D02*
X148050285Y-118280571D01*
X148336000Y-117209142D01*
X148621714Y-118280571D01*
X148978857Y-116780571D01*
X150336000Y-118280571D02*
X149478857Y-118280571D01*
X149907428Y-118280571D02*
X149907428Y-116780571D01*
X149764571Y-116994857D01*
X149621714Y-117137714D01*
X149478857Y-117209142D01*
X139021571Y-87562428D02*
X138878714Y-87491000D01*
X138735857Y-87348142D01*
X138521571Y-87133857D01*
X138378714Y-87062428D01*
X138235857Y-87062428D01*
X138307285Y-87419571D02*
X138164428Y-87348142D01*
X138021571Y-87205285D01*
X137950142Y-86919571D01*
X137950142Y-86419571D01*
X138021571Y-86133857D01*
X138164428Y-85991000D01*
X138307285Y-85919571D01*
X138593000Y-85919571D01*
X138735857Y-85991000D01*
X138878714Y-86133857D01*
X138950142Y-86419571D01*
X138950142Y-86919571D01*
X138878714Y-87205285D01*
X138735857Y-87348142D01*
X138593000Y-87419571D01*
X138307285Y-87419571D01*
X139593000Y-86848142D02*
X140735857Y-86848142D01*
X142307285Y-87419571D02*
X141807285Y-86705285D01*
X141450142Y-87419571D02*
X141450142Y-85919571D01*
X142021571Y-85919571D01*
X142164428Y-85991000D01*
X142235857Y-86062428D01*
X142307285Y-86205285D01*
X142307285Y-86419571D01*
X142235857Y-86562428D01*
X142164428Y-86633857D01*
X142021571Y-86705285D01*
X141450142Y-86705285D01*
X143735857Y-87419571D02*
X142878714Y-87419571D01*
X143307285Y-87419571D02*
X143307285Y-85919571D01*
X143164428Y-86133857D01*
X143021571Y-86276714D01*
X142878714Y-86348142D01*
X139021571Y-93150428D02*
X138878714Y-93079000D01*
X138735857Y-92936142D01*
X138521571Y-92721857D01*
X138378714Y-92650428D01*
X138235857Y-92650428D01*
X138307285Y-93007571D02*
X138164428Y-92936142D01*
X138021571Y-92793285D01*
X137950142Y-92507571D01*
X137950142Y-92007571D01*
X138021571Y-91721857D01*
X138164428Y-91579000D01*
X138307285Y-91507571D01*
X138593000Y-91507571D01*
X138735857Y-91579000D01*
X138878714Y-91721857D01*
X138950142Y-92007571D01*
X138950142Y-92507571D01*
X138878714Y-92793285D01*
X138735857Y-92936142D01*
X138593000Y-93007571D01*
X138307285Y-93007571D01*
X139593000Y-92436142D02*
X140735857Y-92436142D01*
X142235857Y-91579000D02*
X142093000Y-91507571D01*
X141878714Y-91507571D01*
X141664428Y-91579000D01*
X141521571Y-91721857D01*
X141450142Y-91864714D01*
X141378714Y-92150428D01*
X141378714Y-92364714D01*
X141450142Y-92650428D01*
X141521571Y-92793285D01*
X141664428Y-92936142D01*
X141878714Y-93007571D01*
X142021571Y-93007571D01*
X142235857Y-92936142D01*
X142307285Y-92864714D01*
X142307285Y-92364714D01*
X142021571Y-92364714D01*
X143735857Y-93007571D02*
X142878714Y-93007571D01*
X143307285Y-93007571D02*
X143307285Y-91507571D01*
X143164428Y-91721857D01*
X143021571Y-91864714D01*
X142878714Y-91936142D01*
X146621714Y-122487428D02*
X146478857Y-122416000D01*
X146336000Y-122273142D01*
X146121714Y-122058857D01*
X145978857Y-121987428D01*
X145836000Y-121987428D01*
X145907428Y-122344571D02*
X145764571Y-122273142D01*
X145621714Y-122130285D01*
X145550285Y-121844571D01*
X145550285Y-121344571D01*
X145621714Y-121058857D01*
X145764571Y-120916000D01*
X145907428Y-120844571D01*
X146193142Y-120844571D01*
X146336000Y-120916000D01*
X146478857Y-121058857D01*
X146550285Y-121344571D01*
X146550285Y-121844571D01*
X146478857Y-122130285D01*
X146336000Y-122273142D01*
X146193142Y-122344571D01*
X145907428Y-122344571D01*
X147193142Y-121773142D02*
X148336000Y-121773142D01*
X149550285Y-121558857D02*
X149050285Y-121558857D01*
X149050285Y-122344571D02*
X149050285Y-120844571D01*
X149764571Y-120844571D01*
X150264571Y-120987428D02*
X150336000Y-120916000D01*
X150478857Y-120844571D01*
X150836000Y-120844571D01*
X150978857Y-120916000D01*
X151050285Y-120987428D01*
X151121714Y-121130285D01*
X151121714Y-121273142D01*
X151050285Y-121487428D01*
X150193142Y-122344571D01*
X151121714Y-122344571D01*
X146621714Y-104199428D02*
X146478857Y-104128000D01*
X146336000Y-103985142D01*
X146121714Y-103770857D01*
X145978857Y-103699428D01*
X145836000Y-103699428D01*
X145907428Y-104056571D02*
X145764571Y-103985142D01*
X145621714Y-103842285D01*
X145550285Y-103556571D01*
X145550285Y-103056571D01*
X145621714Y-102770857D01*
X145764571Y-102628000D01*
X145907428Y-102556571D01*
X146193142Y-102556571D01*
X146336000Y-102628000D01*
X146478857Y-102770857D01*
X146550285Y-103056571D01*
X146550285Y-103556571D01*
X146478857Y-103842285D01*
X146336000Y-103985142D01*
X146193142Y-104056571D01*
X145907428Y-104056571D01*
X147193142Y-103485142D02*
X148336000Y-103485142D01*
X149550285Y-103270857D02*
X149050285Y-103270857D01*
X149050285Y-104056571D02*
X149050285Y-102556571D01*
X149764571Y-102556571D01*
X151121714Y-104056571D02*
X150264571Y-104056571D01*
X150693142Y-104056571D02*
X150693142Y-102556571D01*
X150550285Y-102770857D01*
X150407428Y-102913714D01*
X150264571Y-102985142D01*
X139021571Y-98738428D02*
X138878714Y-98667000D01*
X138735857Y-98524142D01*
X138521571Y-98309857D01*
X138378714Y-98238428D01*
X138235857Y-98238428D01*
X138307285Y-98595571D02*
X138164428Y-98524142D01*
X138021571Y-98381285D01*
X137950142Y-98095571D01*
X137950142Y-97595571D01*
X138021571Y-97309857D01*
X138164428Y-97167000D01*
X138307285Y-97095571D01*
X138593000Y-97095571D01*
X138735857Y-97167000D01*
X138878714Y-97309857D01*
X138950142Y-97595571D01*
X138950142Y-98095571D01*
X138878714Y-98381285D01*
X138735857Y-98524142D01*
X138593000Y-98595571D01*
X138307285Y-98595571D01*
X139593000Y-98024142D02*
X140735857Y-98024142D01*
X141950142Y-97809857D02*
X142164428Y-97881285D01*
X142235857Y-97952714D01*
X142307285Y-98095571D01*
X142307285Y-98309857D01*
X142235857Y-98452714D01*
X142164428Y-98524142D01*
X142021571Y-98595571D01*
X141450142Y-98595571D01*
X141450142Y-97095571D01*
X141950142Y-97095571D01*
X142093000Y-97167000D01*
X142164428Y-97238428D01*
X142235857Y-97381285D01*
X142235857Y-97524142D01*
X142164428Y-97667000D01*
X142093000Y-97738428D01*
X141950142Y-97809857D01*
X141450142Y-97809857D01*
X143735857Y-98595571D02*
X142878714Y-98595571D01*
X143307285Y-98595571D02*
X143307285Y-97095571D01*
X143164428Y-97309857D01*
X143021571Y-97452714D01*
X142878714Y-97524142D01*
X142780000Y-145974142D02*
X142994285Y-146045571D01*
X143351428Y-146045571D01*
X143494285Y-145974142D01*
X143565714Y-145902714D01*
X143637142Y-145759857D01*
X143637142Y-145617000D01*
X143565714Y-145474142D01*
X143494285Y-145402714D01*
X143351428Y-145331285D01*
X143065714Y-145259857D01*
X142922857Y-145188428D01*
X142851428Y-145117000D01*
X142780000Y-144974142D01*
X142780000Y-144831285D01*
X142851428Y-144688428D01*
X142922857Y-144617000D01*
X143065714Y-144545571D01*
X143422857Y-144545571D01*
X143637142Y-144617000D01*
X144137142Y-144545571D02*
X144494285Y-146045571D01*
X144780000Y-144974142D01*
X145065714Y-146045571D01*
X145422857Y-144545571D01*
X145851428Y-144545571D02*
X146780000Y-144545571D01*
X146280000Y-145117000D01*
X146494285Y-145117000D01*
X146637142Y-145188428D01*
X146708571Y-145259857D01*
X146780000Y-145402714D01*
X146780000Y-145759857D01*
X146708571Y-145902714D01*
X146637142Y-145974142D01*
X146494285Y-146045571D01*
X146065714Y-146045571D01*
X145922857Y-145974142D01*
X145851428Y-145902714D01*
X161103571Y-94483571D02*
X162175000Y-94483571D01*
X162389285Y-94555000D01*
X162532142Y-94697857D01*
X162603571Y-94912142D01*
X162603571Y-95055000D01*
X162032142Y-93769285D02*
X162032142Y-92626428D01*
X162603571Y-91055000D02*
X161889285Y-91555000D01*
X162603571Y-91912142D02*
X161103571Y-91912142D01*
X161103571Y-91340714D01*
X161175000Y-91197857D01*
X161246428Y-91126428D01*
X161389285Y-91055000D01*
X161603571Y-91055000D01*
X161746428Y-91126428D01*
X161817857Y-91197857D01*
X161889285Y-91340714D01*
X161889285Y-91912142D01*
X161175000Y-89626428D02*
X161103571Y-89769285D01*
X161103571Y-89983571D01*
X161175000Y-90197857D01*
X161317857Y-90340714D01*
X161460714Y-90412142D01*
X161746428Y-90483571D01*
X161960714Y-90483571D01*
X162246428Y-90412142D01*
X162389285Y-90340714D01*
X162532142Y-90197857D01*
X162603571Y-89983571D01*
X162603571Y-89840714D01*
X162532142Y-89626428D01*
X162460714Y-89555000D01*
X161960714Y-89555000D01*
X161960714Y-89840714D01*
X161817857Y-88412142D02*
X161889285Y-88197857D01*
X161960714Y-88126428D01*
X162103571Y-88055000D01*
X162317857Y-88055000D01*
X162460714Y-88126428D01*
X162532142Y-88197857D01*
X162603571Y-88340714D01*
X162603571Y-88912142D01*
X161103571Y-88912142D01*
X161103571Y-88412142D01*
X161175000Y-88269285D01*
X161246428Y-88197857D01*
X161389285Y-88126428D01*
X161532142Y-88126428D01*
X161675000Y-88197857D01*
X161746428Y-88269285D01*
X161817857Y-88412142D01*
X161817857Y-88912142D01*
X162603571Y-86626428D02*
X162603571Y-87483571D01*
X162603571Y-87055000D02*
X161103571Y-87055000D01*
X161317857Y-87197857D01*
X161460714Y-87340714D01*
X161532142Y-87483571D01*
X155896571Y-147549714D02*
X156968000Y-147549714D01*
X157182285Y-147621142D01*
X157325142Y-147764000D01*
X157396571Y-147978285D01*
X157396571Y-148121142D01*
X156825142Y-146835428D02*
X156825142Y-145692571D01*
X157396571Y-144978285D02*
X155896571Y-144978285D01*
X155896571Y-144406857D01*
X155968000Y-144264000D01*
X156039428Y-144192571D01*
X156182285Y-144121142D01*
X156396571Y-144121142D01*
X156539428Y-144192571D01*
X156610857Y-144264000D01*
X156682285Y-144406857D01*
X156682285Y-144978285D01*
X155896571Y-143621142D02*
X157396571Y-143264000D01*
X156325142Y-142978285D01*
X157396571Y-142692571D01*
X155896571Y-142335428D01*
X157396571Y-140906857D02*
X156682285Y-141406857D01*
X157396571Y-141764000D02*
X155896571Y-141764000D01*
X155896571Y-141192571D01*
X155968000Y-141049714D01*
X156039428Y-140978285D01*
X156182285Y-140906857D01*
X156396571Y-140906857D01*
X156539428Y-140978285D01*
X156610857Y-141049714D01*
X156682285Y-141192571D01*
X156682285Y-141764000D01*
X157396571Y-139478285D02*
X157396571Y-140335428D01*
X157396571Y-139906857D02*
X155896571Y-139906857D01*
X156110857Y-140049714D01*
X156253714Y-140192571D01*
X156325142Y-140335428D01*
X116038571Y-89856571D02*
X116038571Y-90928000D01*
X115967142Y-91142285D01*
X115824285Y-91285142D01*
X115610000Y-91356571D01*
X115467142Y-91356571D01*
X116752857Y-90785142D02*
X117895714Y-90785142D01*
X118538571Y-90928000D02*
X119252857Y-90928000D01*
X118395714Y-91356571D02*
X118895714Y-89856571D01*
X119395714Y-91356571D01*
X119824285Y-89999428D02*
X119895714Y-89928000D01*
X120038571Y-89856571D01*
X120395714Y-89856571D01*
X120538571Y-89928000D01*
X120610000Y-89999428D01*
X120681428Y-90142285D01*
X120681428Y-90285142D01*
X120610000Y-90499428D01*
X119752857Y-91356571D01*
X120681428Y-91356571D01*
X116038571Y-103318571D02*
X116038571Y-104390000D01*
X115967142Y-104604285D01*
X115824285Y-104747142D01*
X115610000Y-104818571D01*
X115467142Y-104818571D01*
X116752857Y-104247142D02*
X117895714Y-104247142D01*
X118538571Y-104390000D02*
X119252857Y-104390000D01*
X118395714Y-104818571D02*
X118895714Y-103318571D01*
X119395714Y-104818571D01*
X120681428Y-104818571D02*
X119824285Y-104818571D01*
X120252857Y-104818571D02*
X120252857Y-103318571D01*
X120110000Y-103532857D01*
X119967142Y-103675714D01*
X119824285Y-103747142D01*
X130750571Y-151244571D02*
X131822000Y-151244571D01*
X132036285Y-151316000D01*
X132179142Y-151458857D01*
X132250571Y-151673142D01*
X132250571Y-151816000D01*
X131679142Y-150530285D02*
X131679142Y-149387428D01*
X130750571Y-148673142D02*
X131964857Y-148673142D01*
X132107714Y-148601714D01*
X132179142Y-148530285D01*
X132250571Y-148387428D01*
X132250571Y-148101714D01*
X132179142Y-147958857D01*
X132107714Y-147887428D01*
X131964857Y-147816000D01*
X130750571Y-147816000D01*
X131822000Y-147173142D02*
X131822000Y-146458857D01*
X132250571Y-147316000D02*
X130750571Y-146816000D01*
X132250571Y-146316000D01*
X132250571Y-144958857D02*
X131536285Y-145458857D01*
X132250571Y-145816000D02*
X130750571Y-145816000D01*
X130750571Y-145244571D01*
X130822000Y-145101714D01*
X130893428Y-145030285D01*
X131036285Y-144958857D01*
X131250571Y-144958857D01*
X131393428Y-145030285D01*
X131464857Y-145101714D01*
X131536285Y-145244571D01*
X131536285Y-145816000D01*
X130750571Y-144530285D02*
X130750571Y-143673142D01*
X132250571Y-144101714D02*
X130750571Y-144101714D01*
X132250571Y-142387428D02*
X132250571Y-143244571D01*
X132250571Y-142816000D02*
X130750571Y-142816000D01*
X130964857Y-142958857D01*
X131107714Y-143101714D01*
X131179142Y-143244571D01*
M02*
