M48
; DRILL file {KiCad (5.1.2)-2} date 8/14/2019 8:47:55 PM
; FORMAT={-:-/ absolute / inch / decimal}
; #@! TF.CreationDate,2019-08-14T20:47:55-05:00
; #@! TF.GenerationSoftware,Kicad,Pcbnew,(5.1.2)-2
; #@! TF.FileFunction,Plated,1,2,PTH
FMAT,2
INCH
T1C0.0157
T2C0.0394
T3C0.0400
T4C0.0413
T5C0.0433
T6C0.0512
T7C0.1260
%
G90
G05
T1
X4.9Y-3.0
X4.9Y-3.2
X4.9Y-3.4
X4.9Y-3.6
X4.9Y-3.8
X4.9Y-4.0
X4.9Y-4.2
X4.9Y-4.4
X4.9Y-4.6
X4.9Y-4.8
X4.9Y-5.0
X4.9Y-5.2
X4.9Y-5.4
X4.9Y-5.6
X5.1Y-3.0
X5.1Y-3.2
X5.1Y-3.4
X5.1Y-3.6
X5.1Y-3.8
X5.1Y-4.0
X5.1Y-4.2
X5.1Y-4.4
X5.1Y-4.6
X5.1Y-4.8
X5.1Y-5.0
X5.1Y-5.2
X5.1Y-5.4
X5.1Y-5.6
X5.3Y-3.0
X5.3Y-3.2
X5.3Y-3.4
X5.3Y-3.6
X5.3Y-3.8
X5.3Y-4.0
X5.3Y-4.2
X5.3Y-4.4
X5.3Y-4.6
X5.3Y-4.8
X5.3Y-5.0
X5.3Y-5.2
X5.3Y-5.4
X5.5Y-3.0
X5.5Y-3.2
X5.5Y-3.4
X5.5Y-3.6
X5.5Y-3.8
X5.5Y-4.0
X5.5Y-4.2
X5.5Y-4.4
X5.5Y-4.6
X5.5Y-4.8
X5.5Y-5.0
X5.5Y-5.2
X5.5Y-5.4
X5.5Y-5.6
X5.7Y-3.0
X5.7Y-3.2
X5.7Y-3.4
X5.7Y-3.6
X5.7Y-3.8
X5.7Y-4.0
X5.7Y-4.4
X5.7Y-4.6
X5.7Y-4.8
X5.7Y-5.4
X5.7Y-5.6
X5.9Y-3.0
X5.9Y-3.2
X5.9Y-4.8
X5.9Y-5.4
T2
X6.05Y-5.56
X6.05Y-5.66
X6.05Y-5.76
X5.74Y-4.515
X5.84Y-4.515
X5.94Y-4.515
X4.6Y-3.47
X4.7Y-3.47
X4.8Y-3.47
X5.74Y-5.225
X5.84Y-5.225
X5.94Y-5.225
X5.3Y-5.59
X5.3Y-5.69
X5.3Y-5.79
X5.3Y-5.89
X5.3Y-5.99
X6.25Y-3.425
X6.25Y-3.525
X6.25Y-3.625
X6.25Y-3.725
X5.5425Y-5.83
X5.5425Y-6.0662
X5.8575Y-5.83
X5.8575Y-6.0662
X4.6Y-4.0
X4.7Y-4.0
X4.8Y-4.0
X4.5Y-3.73
X4.6Y-3.73
X4.7Y-3.73
X4.8Y-3.73
X4.5Y-3.21
X4.6Y-3.21
X4.7Y-3.21
X4.8Y-3.21
T3
X4.43Y-4.205
X4.43Y-4.305
X4.43Y-4.405
X4.43Y-4.505
X4.43Y-4.605
X4.43Y-4.705
X4.43Y-4.805
X4.43Y-4.905
X4.43Y-5.005
X4.43Y-5.105
X4.43Y-5.205
X4.43Y-5.305
X5.03Y-4.205
X5.03Y-4.305
X5.03Y-4.405
X5.03Y-4.505
X5.03Y-4.605
X5.03Y-4.705
X5.03Y-4.805
X5.03Y-4.905
X5.03Y-5.005
X5.03Y-5.105
X5.03Y-5.205
X5.03Y-5.305
T4
X6.2Y-4.95
X6.2Y-5.05
X6.2Y-5.15
X6.2Y-5.25
X6.2Y-4.235
X6.2Y-4.335
X6.2Y-4.435
X6.2Y-4.535
T5
X5.74Y-4.255
X5.84Y-4.255
X5.94Y-4.255
X5.79Y-3.855
X5.89Y-3.855
X5.99Y-3.855
X5.79Y-3.635
X5.89Y-3.635
X5.99Y-3.635
X5.79Y-3.415
X5.89Y-3.415
X5.99Y-3.415
X5.74Y-4.975
X5.84Y-4.975
X5.94Y-4.975
T6
X6.285Y-5.15
X6.285Y-4.435
T7
X4.29Y-6.01
X6.29Y-6.01
X4.29Y-3.01
X6.29Y-3.01
T0
M30
