G04 #@! TF.GenerationSoftware,KiCad,Pcbnew,(5.1.2)-2*
G04 #@! TF.CreationDate,2019-08-14T20:47:52-05:00*
G04 #@! TF.ProjectId,CorsairController,436f7273-6169-4724-936f-6e74726f6c6c,rev?*
G04 #@! TF.SameCoordinates,Original*
G04 #@! TF.FileFunction,Soldermask,Top*
G04 #@! TF.FilePolarity,Negative*
%FSLAX46Y46*%
G04 Gerber Fmt 4.6, Leading zero omitted, Abs format (unit mm)*
G04 Created by KiCad (PCBNEW (5.1.2)-2) date 2019-08-14 20:47:52*
%MOMM*%
%LPD*%
G04 APERTURE LIST*
%ADD10C,0.100000*%
G04 APERTURE END LIST*
D10*
G36*
X160400239Y-149465467D02*
G01*
X160714282Y-149527934D01*
X161305926Y-149773001D01*
X161838392Y-150128784D01*
X162291216Y-150581608D01*
X162646999Y-151114074D01*
X162701230Y-151245000D01*
X162892066Y-151705719D01*
X163017000Y-152333803D01*
X163017000Y-152974197D01*
X162954533Y-153288239D01*
X162892066Y-153602282D01*
X162646999Y-154193926D01*
X162371175Y-154606725D01*
X162309512Y-154699011D01*
X162291216Y-154726392D01*
X161838392Y-155179216D01*
X161305926Y-155534999D01*
X160714282Y-155780066D01*
X160400239Y-155842533D01*
X160086197Y-155905000D01*
X159445803Y-155905000D01*
X159131761Y-155842533D01*
X158817718Y-155780066D01*
X158226074Y-155534999D01*
X157693608Y-155179216D01*
X157240784Y-154726392D01*
X157222489Y-154699011D01*
X157160825Y-154606725D01*
X156885001Y-154193926D01*
X156639934Y-153602282D01*
X156577467Y-153288239D01*
X156515000Y-152974197D01*
X156515000Y-152333803D01*
X156639934Y-151705719D01*
X156830770Y-151245000D01*
X156885001Y-151114074D01*
X157240784Y-150581608D01*
X157693608Y-150128784D01*
X158226074Y-149773001D01*
X158817718Y-149527934D01*
X159131761Y-149465467D01*
X159445803Y-149403000D01*
X160086197Y-149403000D01*
X160400239Y-149465467D01*
X160400239Y-149465467D01*
G37*
G36*
X109600239Y-149465467D02*
G01*
X109914282Y-149527934D01*
X110505926Y-149773001D01*
X111038392Y-150128784D01*
X111491216Y-150581608D01*
X111846999Y-151114074D01*
X111901230Y-151245000D01*
X112092066Y-151705719D01*
X112217000Y-152333803D01*
X112217000Y-152974197D01*
X112154533Y-153288239D01*
X112092066Y-153602282D01*
X111846999Y-154193926D01*
X111571175Y-154606725D01*
X111509512Y-154699011D01*
X111491216Y-154726392D01*
X111038392Y-155179216D01*
X110505926Y-155534999D01*
X109914282Y-155780066D01*
X109600239Y-155842533D01*
X109286197Y-155905000D01*
X108645803Y-155905000D01*
X108331761Y-155842533D01*
X108017718Y-155780066D01*
X107426074Y-155534999D01*
X106893608Y-155179216D01*
X106440784Y-154726392D01*
X106422489Y-154699011D01*
X106360825Y-154606725D01*
X106085001Y-154193926D01*
X105839934Y-153602282D01*
X105777467Y-153288239D01*
X105715000Y-152974197D01*
X105715000Y-152333803D01*
X105839934Y-151705719D01*
X106030770Y-151245000D01*
X106085001Y-151114074D01*
X106440784Y-150581608D01*
X106893608Y-150128784D01*
X107426074Y-149773001D01*
X108017718Y-149527934D01*
X108331761Y-149465467D01*
X108645803Y-149403000D01*
X109286197Y-149403000D01*
X109600239Y-149465467D01*
X109600239Y-149465467D01*
G37*
G36*
X141362269Y-153354185D02*
G01*
X141501482Y-153396415D01*
X141629773Y-153464988D01*
X141742225Y-153557275D01*
X141834512Y-153669727D01*
X141903085Y-153798018D01*
X141945315Y-153937231D01*
X141959573Y-154082000D01*
X141945315Y-154226769D01*
X141903085Y-154365982D01*
X141834512Y-154494273D01*
X141742225Y-154606725D01*
X141629773Y-154699012D01*
X141501482Y-154767585D01*
X141362269Y-154809815D01*
X141253780Y-154820500D01*
X140306220Y-154820500D01*
X140197731Y-154809815D01*
X140058518Y-154767585D01*
X139930227Y-154699012D01*
X139817775Y-154606725D01*
X139725488Y-154494273D01*
X139656915Y-154365982D01*
X139614685Y-154226769D01*
X139600427Y-154082000D01*
X139614685Y-153937231D01*
X139656915Y-153798018D01*
X139725488Y-153669727D01*
X139817775Y-153557275D01*
X139930227Y-153464988D01*
X140058518Y-153396415D01*
X140197731Y-153354185D01*
X140306220Y-153343500D01*
X141253780Y-153343500D01*
X141362269Y-153354185D01*
X141362269Y-153354185D01*
G37*
G36*
X149362269Y-153354185D02*
G01*
X149501482Y-153396415D01*
X149629773Y-153464988D01*
X149742225Y-153557275D01*
X149834512Y-153669727D01*
X149903085Y-153798018D01*
X149945315Y-153937231D01*
X149959573Y-154082000D01*
X149945315Y-154226769D01*
X149903085Y-154365982D01*
X149834512Y-154494273D01*
X149742225Y-154606725D01*
X149629773Y-154699012D01*
X149501482Y-154767585D01*
X149362269Y-154809815D01*
X149253780Y-154820500D01*
X148306220Y-154820500D01*
X148197731Y-154809815D01*
X148058518Y-154767585D01*
X147930227Y-154699012D01*
X147817775Y-154606725D01*
X147725488Y-154494273D01*
X147656915Y-154365982D01*
X147614685Y-154226769D01*
X147600427Y-154082000D01*
X147614685Y-153937231D01*
X147656915Y-153798018D01*
X147725488Y-153669727D01*
X147817775Y-153557275D01*
X147930227Y-153464988D01*
X148058518Y-153396415D01*
X148197731Y-153354185D01*
X148306220Y-153343500D01*
X149253780Y-153343500D01*
X149362269Y-153354185D01*
X149362269Y-153354185D01*
G37*
G36*
X135521000Y-153047000D02*
G01*
X133719000Y-153047000D01*
X133719000Y-151245000D01*
X135521000Y-151245000D01*
X135521000Y-153047000D01*
X135521000Y-153047000D01*
G37*
G36*
X134730442Y-148711518D02*
G01*
X134796627Y-148718037D01*
X134966466Y-148769557D01*
X135122991Y-148853222D01*
X135158729Y-148882552D01*
X135260186Y-148965814D01*
X135343448Y-149067271D01*
X135372778Y-149103009D01*
X135456443Y-149259534D01*
X135507963Y-149429373D01*
X135525359Y-149606000D01*
X135507963Y-149782627D01*
X135456443Y-149952466D01*
X135372778Y-150108991D01*
X135356535Y-150128783D01*
X135260186Y-150246186D01*
X135158729Y-150329448D01*
X135122991Y-150358778D01*
X134966466Y-150442443D01*
X134796627Y-150493963D01*
X134730442Y-150500482D01*
X134664260Y-150507000D01*
X134575740Y-150507000D01*
X134509558Y-150500482D01*
X134443373Y-150493963D01*
X134273534Y-150442443D01*
X134117009Y-150358778D01*
X134081271Y-150329448D01*
X133979814Y-150246186D01*
X133883465Y-150128783D01*
X133867222Y-150108991D01*
X133783557Y-149952466D01*
X133732037Y-149782627D01*
X133714641Y-149606000D01*
X133732037Y-149429373D01*
X133783557Y-149259534D01*
X133867222Y-149103009D01*
X133896552Y-149067271D01*
X133979814Y-148965814D01*
X134081271Y-148882552D01*
X134117009Y-148853222D01*
X134273534Y-148769557D01*
X134443373Y-148718037D01*
X134509558Y-148711518D01*
X134575740Y-148705000D01*
X134664260Y-148705000D01*
X134730442Y-148711518D01*
X134730442Y-148711518D01*
G37*
G36*
X149362269Y-147354185D02*
G01*
X149501482Y-147396415D01*
X149629773Y-147464988D01*
X149742225Y-147557275D01*
X149834512Y-147669727D01*
X149903085Y-147798018D01*
X149945315Y-147937231D01*
X149959573Y-148082000D01*
X149945315Y-148226769D01*
X149903085Y-148365982D01*
X149834512Y-148494273D01*
X149742225Y-148606725D01*
X149629773Y-148699012D01*
X149501482Y-148767585D01*
X149362269Y-148809815D01*
X149253780Y-148820500D01*
X148306220Y-148820500D01*
X148197731Y-148809815D01*
X148058518Y-148767585D01*
X147930227Y-148699012D01*
X147817775Y-148606725D01*
X147725488Y-148494273D01*
X147656915Y-148365982D01*
X147614685Y-148226769D01*
X147600427Y-148082000D01*
X147614685Y-147937231D01*
X147656915Y-147798018D01*
X147725488Y-147669727D01*
X147817775Y-147557275D01*
X147930227Y-147464988D01*
X148058518Y-147396415D01*
X148197731Y-147354185D01*
X148306220Y-147343500D01*
X149253780Y-147343500D01*
X149362269Y-147354185D01*
X149362269Y-147354185D01*
G37*
G36*
X141362269Y-147354185D02*
G01*
X141501482Y-147396415D01*
X141629773Y-147464988D01*
X141742225Y-147557275D01*
X141834512Y-147669727D01*
X141903085Y-147798018D01*
X141945315Y-147937231D01*
X141959573Y-148082000D01*
X141945315Y-148226769D01*
X141903085Y-148365982D01*
X141834512Y-148494273D01*
X141742225Y-148606725D01*
X141629773Y-148699012D01*
X141501482Y-148767585D01*
X141362269Y-148809815D01*
X141253780Y-148820500D01*
X140306220Y-148820500D01*
X140197731Y-148809815D01*
X140058518Y-148767585D01*
X139930227Y-148699012D01*
X139817775Y-148606725D01*
X139725488Y-148494273D01*
X139656915Y-148365982D01*
X139614685Y-148226769D01*
X139600427Y-148082000D01*
X139614685Y-147937231D01*
X139656915Y-147798018D01*
X139725488Y-147669727D01*
X139817775Y-147557275D01*
X139930227Y-147464988D01*
X140058518Y-147396415D01*
X140197731Y-147354185D01*
X140306220Y-147343500D01*
X141253780Y-147343500D01*
X141362269Y-147354185D01*
X141362269Y-147354185D01*
G37*
G36*
X134730443Y-146171519D02*
G01*
X134796627Y-146178037D01*
X134966466Y-146229557D01*
X135122991Y-146313222D01*
X135158729Y-146342552D01*
X135260186Y-146425814D01*
X135343448Y-146527271D01*
X135372778Y-146563009D01*
X135456443Y-146719534D01*
X135507963Y-146889373D01*
X135525359Y-147066000D01*
X135507963Y-147242627D01*
X135456443Y-147412466D01*
X135372778Y-147568991D01*
X135343448Y-147604729D01*
X135260186Y-147706186D01*
X135158729Y-147789448D01*
X135122991Y-147818778D01*
X134966466Y-147902443D01*
X134796627Y-147953963D01*
X134730443Y-147960481D01*
X134664260Y-147967000D01*
X134575740Y-147967000D01*
X134509557Y-147960481D01*
X134443373Y-147953963D01*
X134273534Y-147902443D01*
X134117009Y-147818778D01*
X134081271Y-147789448D01*
X133979814Y-147706186D01*
X133896552Y-147604729D01*
X133867222Y-147568991D01*
X133783557Y-147412466D01*
X133732037Y-147242627D01*
X133714641Y-147066000D01*
X133732037Y-146889373D01*
X133783557Y-146719534D01*
X133867222Y-146563009D01*
X133896552Y-146527271D01*
X133979814Y-146425814D01*
X134081271Y-146342552D01*
X134117009Y-146313222D01*
X134273534Y-146229557D01*
X134443373Y-146178037D01*
X134509557Y-146171519D01*
X134575740Y-146165000D01*
X134664260Y-146165000D01*
X134730443Y-146171519D01*
X134730443Y-146171519D01*
G37*
G36*
X154571000Y-147205000D02*
G01*
X152769000Y-147205000D01*
X152769000Y-145403000D01*
X154571000Y-145403000D01*
X154571000Y-147205000D01*
X154571000Y-147205000D01*
G37*
G36*
X134730442Y-143631518D02*
G01*
X134796627Y-143638037D01*
X134966466Y-143689557D01*
X135122991Y-143773222D01*
X135158729Y-143802552D01*
X135260186Y-143885814D01*
X135343448Y-143987271D01*
X135372778Y-144023009D01*
X135456443Y-144179534D01*
X135507963Y-144349373D01*
X135525359Y-144526000D01*
X135507963Y-144702627D01*
X135456443Y-144872466D01*
X135372778Y-145028991D01*
X135343448Y-145064729D01*
X135260186Y-145166186D01*
X135158729Y-145249448D01*
X135122991Y-145278778D01*
X134966466Y-145362443D01*
X134796627Y-145413963D01*
X134730443Y-145420481D01*
X134664260Y-145427000D01*
X134575740Y-145427000D01*
X134509557Y-145420481D01*
X134443373Y-145413963D01*
X134273534Y-145362443D01*
X134117009Y-145278778D01*
X134081271Y-145249448D01*
X133979814Y-145166186D01*
X133896552Y-145064729D01*
X133867222Y-145028991D01*
X133783557Y-144872466D01*
X133732037Y-144702627D01*
X133714641Y-144526000D01*
X133732037Y-144349373D01*
X133783557Y-144179534D01*
X133867222Y-144023009D01*
X133896552Y-143987271D01*
X133979814Y-143885814D01*
X134081271Y-143802552D01*
X134117009Y-143773222D01*
X134273534Y-143689557D01*
X134443373Y-143638037D01*
X134509558Y-143631518D01*
X134575740Y-143625000D01*
X134664260Y-143625000D01*
X134730442Y-143631518D01*
X134730442Y-143631518D01*
G37*
G36*
X153780443Y-142869519D02*
G01*
X153846627Y-142876037D01*
X154016466Y-142927557D01*
X154172991Y-143011222D01*
X154208729Y-143040552D01*
X154310186Y-143123814D01*
X154393448Y-143225271D01*
X154422778Y-143261009D01*
X154506443Y-143417534D01*
X154557963Y-143587373D01*
X154575359Y-143764000D01*
X154557963Y-143940627D01*
X154506443Y-144110466D01*
X154422778Y-144266991D01*
X154393448Y-144302729D01*
X154310186Y-144404186D01*
X154208729Y-144487448D01*
X154172991Y-144516778D01*
X154016466Y-144600443D01*
X153846627Y-144651963D01*
X153780442Y-144658482D01*
X153714260Y-144665000D01*
X153625740Y-144665000D01*
X153559558Y-144658482D01*
X153493373Y-144651963D01*
X153323534Y-144600443D01*
X153167009Y-144516778D01*
X153131271Y-144487448D01*
X153029814Y-144404186D01*
X152946552Y-144302729D01*
X152917222Y-144266991D01*
X152833557Y-144110466D01*
X152782037Y-143940627D01*
X152764641Y-143764000D01*
X152782037Y-143587373D01*
X152833557Y-143417534D01*
X152917222Y-143261009D01*
X152946552Y-143225271D01*
X153029814Y-143123814D01*
X153131271Y-143040552D01*
X153167009Y-143011222D01*
X153323534Y-142927557D01*
X153493373Y-142876037D01*
X153559557Y-142869519D01*
X153625740Y-142863000D01*
X153714260Y-142863000D01*
X153780443Y-142869519D01*
X153780443Y-142869519D01*
G37*
G36*
X134730442Y-141091518D02*
G01*
X134796627Y-141098037D01*
X134966466Y-141149557D01*
X135122991Y-141233222D01*
X135158729Y-141262552D01*
X135260186Y-141345814D01*
X135343448Y-141447271D01*
X135372778Y-141483009D01*
X135456443Y-141639534D01*
X135507963Y-141809373D01*
X135525359Y-141986000D01*
X135507963Y-142162627D01*
X135456443Y-142332466D01*
X135372778Y-142488991D01*
X135343448Y-142524729D01*
X135260186Y-142626186D01*
X135158729Y-142709448D01*
X135122991Y-142738778D01*
X134966466Y-142822443D01*
X134796627Y-142873963D01*
X134730442Y-142880482D01*
X134664260Y-142887000D01*
X134575740Y-142887000D01*
X134509558Y-142880482D01*
X134443373Y-142873963D01*
X134273534Y-142822443D01*
X134117009Y-142738778D01*
X134081271Y-142709448D01*
X133979814Y-142626186D01*
X133896552Y-142524729D01*
X133867222Y-142488991D01*
X133783557Y-142332466D01*
X133732037Y-142162627D01*
X133714641Y-141986000D01*
X133732037Y-141809373D01*
X133783557Y-141639534D01*
X133867222Y-141483009D01*
X133896552Y-141447271D01*
X133979814Y-141345814D01*
X134081271Y-141262552D01*
X134117009Y-141233222D01*
X134273534Y-141149557D01*
X134443373Y-141098037D01*
X134509558Y-141091518D01*
X134575740Y-141085000D01*
X134664260Y-141085000D01*
X134730442Y-141091518D01*
X134730442Y-141091518D01*
G37*
G36*
X153780442Y-140329518D02*
G01*
X153846627Y-140336037D01*
X154016466Y-140387557D01*
X154172991Y-140471222D01*
X154208729Y-140500552D01*
X154310186Y-140583814D01*
X154393448Y-140685271D01*
X154422778Y-140721009D01*
X154506443Y-140877534D01*
X154557963Y-141047373D01*
X154575359Y-141224000D01*
X154557963Y-141400627D01*
X154506443Y-141570466D01*
X154422778Y-141726991D01*
X154393448Y-141762729D01*
X154310186Y-141864186D01*
X154208729Y-141947448D01*
X154172991Y-141976778D01*
X154016466Y-142060443D01*
X153846627Y-142111963D01*
X153780443Y-142118481D01*
X153714260Y-142125000D01*
X153625740Y-142125000D01*
X153559557Y-142118481D01*
X153493373Y-142111963D01*
X153323534Y-142060443D01*
X153167009Y-141976778D01*
X153131271Y-141947448D01*
X153029814Y-141864186D01*
X152946552Y-141762729D01*
X152917222Y-141726991D01*
X152833557Y-141570466D01*
X152782037Y-141400627D01*
X152764641Y-141224000D01*
X152782037Y-141047373D01*
X152833557Y-140877534D01*
X152917222Y-140721009D01*
X152946552Y-140685271D01*
X153029814Y-140583814D01*
X153131271Y-140500552D01*
X153167009Y-140471222D01*
X153323534Y-140387557D01*
X153493373Y-140336037D01*
X153559558Y-140329518D01*
X153625740Y-140323000D01*
X153714260Y-140323000D01*
X153780442Y-140329518D01*
X153780442Y-140329518D01*
G37*
G36*
X128065765Y-133745620D02*
G01*
X128255288Y-133824123D01*
X128425854Y-133938092D01*
X128570908Y-134083146D01*
X128684877Y-134253712D01*
X128763380Y-134443235D01*
X128803400Y-134644431D01*
X128803400Y-134849569D01*
X128763380Y-135050765D01*
X128684877Y-135240288D01*
X128570908Y-135410854D01*
X128425854Y-135555908D01*
X128255288Y-135669877D01*
X128255287Y-135669878D01*
X128255286Y-135669878D01*
X128065765Y-135748380D01*
X127864570Y-135788400D01*
X127659430Y-135788400D01*
X127458235Y-135748380D01*
X127268714Y-135669878D01*
X127268713Y-135669878D01*
X127268712Y-135669877D01*
X127098146Y-135555908D01*
X126953092Y-135410854D01*
X126839123Y-135240288D01*
X126760620Y-135050765D01*
X126720600Y-134849569D01*
X126720600Y-134644431D01*
X126760620Y-134443235D01*
X126839123Y-134253712D01*
X126953092Y-134083146D01*
X127098146Y-133938092D01*
X127268712Y-133824123D01*
X127458235Y-133745620D01*
X127659430Y-133705600D01*
X127864570Y-133705600D01*
X128065765Y-133745620D01*
X128065765Y-133745620D01*
G37*
G36*
X112825765Y-133745620D02*
G01*
X113015288Y-133824123D01*
X113185854Y-133938092D01*
X113330908Y-134083146D01*
X113444877Y-134253712D01*
X113523380Y-134443235D01*
X113563400Y-134644431D01*
X113563400Y-134849569D01*
X113523380Y-135050765D01*
X113444877Y-135240288D01*
X113330908Y-135410854D01*
X113185854Y-135555908D01*
X113015288Y-135669877D01*
X113015287Y-135669878D01*
X113015286Y-135669878D01*
X112825765Y-135748380D01*
X112624570Y-135788400D01*
X112419430Y-135788400D01*
X112218235Y-135748380D01*
X112028714Y-135669878D01*
X112028713Y-135669878D01*
X112028712Y-135669877D01*
X111858146Y-135555908D01*
X111713092Y-135410854D01*
X111599123Y-135240288D01*
X111520620Y-135050765D01*
X111480600Y-134849569D01*
X111480600Y-134644431D01*
X111520620Y-134443235D01*
X111599123Y-134253712D01*
X111713092Y-134083146D01*
X111858146Y-133938092D01*
X112028712Y-133824123D01*
X112218235Y-133745620D01*
X112419430Y-133705600D01*
X112624570Y-133705600D01*
X112825765Y-133745620D01*
X112825765Y-133745620D01*
G37*
G36*
X157790343Y-132445361D02*
G01*
X157809568Y-132447254D01*
X157895900Y-132473443D01*
X157982234Y-132499632D01*
X158141365Y-132584689D01*
X158280844Y-132699156D01*
X158395311Y-132838635D01*
X158480368Y-132997766D01*
X158499691Y-133061466D01*
X158520444Y-133129877D01*
X158532746Y-133170433D01*
X158550432Y-133350000D01*
X158534332Y-133513468D01*
X158532746Y-133529568D01*
X158526110Y-133551443D01*
X158480368Y-133702234D01*
X158395311Y-133861365D01*
X158280844Y-134000844D01*
X158141365Y-134115311D01*
X157982234Y-134200368D01*
X157809568Y-134252746D01*
X157799739Y-134253714D01*
X157674998Y-134266000D01*
X157285002Y-134266000D01*
X157160261Y-134253714D01*
X157150432Y-134252746D01*
X156977766Y-134200368D01*
X156818635Y-134115311D01*
X156679156Y-134000844D01*
X156564689Y-133861365D01*
X156479632Y-133702234D01*
X156433890Y-133551443D01*
X156427254Y-133529568D01*
X156425668Y-133513468D01*
X156409568Y-133350000D01*
X156427254Y-133170433D01*
X156439557Y-133129877D01*
X156460309Y-133061466D01*
X156479632Y-132997766D01*
X156564689Y-132838635D01*
X156679156Y-132699156D01*
X156818635Y-132584689D01*
X156977766Y-132499632D01*
X157064100Y-132473443D01*
X157150432Y-132447254D01*
X157169657Y-132445361D01*
X157285002Y-132434000D01*
X157674998Y-132434000D01*
X157790343Y-132445361D01*
X157790343Y-132445361D01*
G37*
G36*
X150986443Y-131820519D02*
G01*
X151052627Y-131827037D01*
X151222466Y-131878557D01*
X151378991Y-131962222D01*
X151414729Y-131991552D01*
X151516186Y-132074814D01*
X151599448Y-132176271D01*
X151628778Y-132212009D01*
X151712443Y-132368534D01*
X151763963Y-132538373D01*
X151781359Y-132715000D01*
X151763963Y-132891627D01*
X151712443Y-133061466D01*
X151628778Y-133217991D01*
X151603822Y-133248400D01*
X151516186Y-133355186D01*
X151414729Y-133438448D01*
X151378991Y-133467778D01*
X151222466Y-133551443D01*
X151052627Y-133602963D01*
X150986443Y-133609481D01*
X150920260Y-133616000D01*
X150831740Y-133616000D01*
X150765557Y-133609481D01*
X150699373Y-133602963D01*
X150529534Y-133551443D01*
X150373009Y-133467778D01*
X150337271Y-133438448D01*
X150235814Y-133355186D01*
X150148178Y-133248400D01*
X150123222Y-133217991D01*
X150039557Y-133061466D01*
X149988037Y-132891627D01*
X149970641Y-132715000D01*
X149988037Y-132538373D01*
X150039557Y-132368534D01*
X150123222Y-132212009D01*
X150152552Y-132176271D01*
X150235814Y-132074814D01*
X150337271Y-131991552D01*
X150373009Y-131962222D01*
X150529534Y-131878557D01*
X150699373Y-131827037D01*
X150765557Y-131820519D01*
X150831740Y-131814000D01*
X150920260Y-131814000D01*
X150986443Y-131820519D01*
X150986443Y-131820519D01*
G37*
G36*
X148446443Y-131820519D02*
G01*
X148512627Y-131827037D01*
X148682466Y-131878557D01*
X148838991Y-131962222D01*
X148874729Y-131991552D01*
X148976186Y-132074814D01*
X149059448Y-132176271D01*
X149088778Y-132212009D01*
X149172443Y-132368534D01*
X149223963Y-132538373D01*
X149241359Y-132715000D01*
X149223963Y-132891627D01*
X149172443Y-133061466D01*
X149088778Y-133217991D01*
X149063822Y-133248400D01*
X148976186Y-133355186D01*
X148874729Y-133438448D01*
X148838991Y-133467778D01*
X148682466Y-133551443D01*
X148512627Y-133602963D01*
X148446443Y-133609481D01*
X148380260Y-133616000D01*
X148291740Y-133616000D01*
X148225557Y-133609481D01*
X148159373Y-133602963D01*
X147989534Y-133551443D01*
X147833009Y-133467778D01*
X147797271Y-133438448D01*
X147695814Y-133355186D01*
X147608178Y-133248400D01*
X147583222Y-133217991D01*
X147499557Y-133061466D01*
X147448037Y-132891627D01*
X147430641Y-132715000D01*
X147448037Y-132538373D01*
X147499557Y-132368534D01*
X147583222Y-132212009D01*
X147612552Y-132176271D01*
X147695814Y-132074814D01*
X147797271Y-131991552D01*
X147833009Y-131962222D01*
X147989534Y-131878557D01*
X148159373Y-131827037D01*
X148225557Y-131820519D01*
X148291740Y-131814000D01*
X148380260Y-131814000D01*
X148446443Y-131820519D01*
X148446443Y-131820519D01*
G37*
G36*
X146697000Y-133616000D02*
G01*
X144895000Y-133616000D01*
X144895000Y-131814000D01*
X146697000Y-131814000D01*
X146697000Y-133616000D01*
X146697000Y-133616000D01*
G37*
G36*
X128065765Y-131205620D02*
G01*
X128255288Y-131284123D01*
X128425854Y-131398092D01*
X128570908Y-131543146D01*
X128684877Y-131713712D01*
X128684878Y-131713714D01*
X128763380Y-131903235D01*
X128803400Y-132104430D01*
X128803400Y-132309570D01*
X128763380Y-132510765D01*
X128685346Y-132699157D01*
X128684877Y-132700288D01*
X128570908Y-132870854D01*
X128425854Y-133015908D01*
X128255288Y-133129877D01*
X128255287Y-133129878D01*
X128255286Y-133129878D01*
X128065765Y-133208380D01*
X127864570Y-133248400D01*
X127659430Y-133248400D01*
X127458235Y-133208380D01*
X127268714Y-133129878D01*
X127268713Y-133129878D01*
X127268712Y-133129877D01*
X127098146Y-133015908D01*
X126953092Y-132870854D01*
X126839123Y-132700288D01*
X126838655Y-132699157D01*
X126760620Y-132510765D01*
X126720600Y-132309570D01*
X126720600Y-132104430D01*
X126760620Y-131903235D01*
X126839122Y-131713714D01*
X126839123Y-131713712D01*
X126953092Y-131543146D01*
X127098146Y-131398092D01*
X127268712Y-131284123D01*
X127458235Y-131205620D01*
X127659430Y-131165600D01*
X127864570Y-131165600D01*
X128065765Y-131205620D01*
X128065765Y-131205620D01*
G37*
G36*
X112825765Y-131205620D02*
G01*
X113015288Y-131284123D01*
X113185854Y-131398092D01*
X113330908Y-131543146D01*
X113444877Y-131713712D01*
X113444878Y-131713714D01*
X113523380Y-131903235D01*
X113563400Y-132104430D01*
X113563400Y-132309570D01*
X113523380Y-132510765D01*
X113445346Y-132699157D01*
X113444877Y-132700288D01*
X113330908Y-132870854D01*
X113185854Y-133015908D01*
X113015288Y-133129877D01*
X113015287Y-133129878D01*
X113015286Y-133129878D01*
X112825765Y-133208380D01*
X112624570Y-133248400D01*
X112419430Y-133248400D01*
X112218235Y-133208380D01*
X112028714Y-133129878D01*
X112028713Y-133129878D01*
X112028712Y-133129877D01*
X111858146Y-133015908D01*
X111713092Y-132870854D01*
X111599123Y-132700288D01*
X111598655Y-132699157D01*
X111520620Y-132510765D01*
X111480600Y-132309570D01*
X111480600Y-132104430D01*
X111520620Y-131903235D01*
X111599122Y-131713714D01*
X111599123Y-131713712D01*
X111713092Y-131543146D01*
X111858146Y-131398092D01*
X112028712Y-131284123D01*
X112218235Y-131205620D01*
X112419430Y-131165600D01*
X112624570Y-131165600D01*
X112825765Y-131205620D01*
X112825765Y-131205620D01*
G37*
G36*
X157790343Y-129905361D02*
G01*
X157809568Y-129907254D01*
X157982234Y-129959632D01*
X158141365Y-130044689D01*
X158280844Y-130159156D01*
X158395311Y-130298635D01*
X158480368Y-130457766D01*
X158506557Y-130544100D01*
X158532746Y-130630432D01*
X158537100Y-130674641D01*
X158541881Y-130698675D01*
X158551258Y-130721313D01*
X158564872Y-130741688D01*
X158582199Y-130759015D01*
X158602573Y-130772628D01*
X158625212Y-130782006D01*
X158649245Y-130786786D01*
X158673749Y-130786786D01*
X158697783Y-130782005D01*
X158720421Y-130772628D01*
X158740796Y-130759014D01*
X158758123Y-130741687D01*
X158771736Y-130721313D01*
X158781114Y-130698674D01*
X158784094Y-130686774D01*
X158809683Y-130558127D01*
X158874775Y-130400981D01*
X158874776Y-130400979D01*
X158969276Y-130259551D01*
X159089551Y-130139276D01*
X159230979Y-130044776D01*
X159231189Y-130044689D01*
X159388126Y-129979683D01*
X159554951Y-129946500D01*
X159725049Y-129946500D01*
X159891874Y-129979683D01*
X160048811Y-130044689D01*
X160049021Y-130044776D01*
X160190449Y-130139276D01*
X160310724Y-130259551D01*
X160405224Y-130400979D01*
X160405225Y-130400981D01*
X160470317Y-130558126D01*
X160503500Y-130724951D01*
X160503500Y-130895049D01*
X160470317Y-131061874D01*
X160428746Y-131162234D01*
X160405224Y-131219021D01*
X160310724Y-131360449D01*
X160190449Y-131480724D01*
X160049021Y-131575224D01*
X160049020Y-131575225D01*
X160049019Y-131575225D01*
X159891874Y-131640317D01*
X159725049Y-131673500D01*
X159554951Y-131673500D01*
X159388126Y-131640317D01*
X159230981Y-131575225D01*
X159230980Y-131575225D01*
X159230979Y-131575224D01*
X159089551Y-131480724D01*
X158969276Y-131360449D01*
X158874776Y-131219021D01*
X158851254Y-131162234D01*
X158809683Y-131061873D01*
X158784094Y-130933226D01*
X158776981Y-130909777D01*
X158765430Y-130888166D01*
X158749885Y-130869224D01*
X158730943Y-130853678D01*
X158709333Y-130842127D01*
X158685884Y-130835014D01*
X158661498Y-130832612D01*
X158637112Y-130835014D01*
X158613663Y-130842127D01*
X158592052Y-130853678D01*
X158573110Y-130869223D01*
X158557564Y-130888165D01*
X158546013Y-130909775D01*
X158538900Y-130933224D01*
X158537100Y-130945356D01*
X158532746Y-130989567D01*
X158480368Y-131162234D01*
X158395311Y-131321365D01*
X158280844Y-131460844D01*
X158141365Y-131575311D01*
X157982234Y-131660368D01*
X157809568Y-131712746D01*
X157799739Y-131713714D01*
X157674998Y-131726000D01*
X157285002Y-131726000D01*
X157160261Y-131713714D01*
X157150432Y-131712746D01*
X156977766Y-131660368D01*
X156818635Y-131575311D01*
X156679156Y-131460844D01*
X156564689Y-131321365D01*
X156479632Y-131162234D01*
X156427254Y-130989567D01*
X156409568Y-130810000D01*
X156427254Y-130630433D01*
X156439557Y-130589877D01*
X156453443Y-130544100D01*
X156479632Y-130457766D01*
X156564689Y-130298635D01*
X156679156Y-130159156D01*
X156818635Y-130044689D01*
X156977766Y-129959632D01*
X157150432Y-129907254D01*
X157169657Y-129905361D01*
X157285002Y-129894000D01*
X157674998Y-129894000D01*
X157790343Y-129905361D01*
X157790343Y-129905361D01*
G37*
G36*
X128065765Y-128665620D02*
G01*
X128255288Y-128744123D01*
X128425854Y-128858092D01*
X128570908Y-129003146D01*
X128684877Y-129173712D01*
X128684878Y-129173714D01*
X128763380Y-129363235D01*
X128803400Y-129564430D01*
X128803400Y-129769570D01*
X128763380Y-129970765D01*
X128685346Y-130159157D01*
X128684877Y-130160288D01*
X128570908Y-130330854D01*
X128425854Y-130475908D01*
X128255288Y-130589877D01*
X128255287Y-130589878D01*
X128255286Y-130589878D01*
X128065765Y-130668380D01*
X127864570Y-130708400D01*
X127659430Y-130708400D01*
X127458235Y-130668380D01*
X127268714Y-130589878D01*
X127268713Y-130589878D01*
X127268712Y-130589877D01*
X127098146Y-130475908D01*
X126953092Y-130330854D01*
X126839123Y-130160288D01*
X126838655Y-130159157D01*
X126760620Y-129970765D01*
X126720600Y-129769570D01*
X126720600Y-129564430D01*
X126760620Y-129363235D01*
X126839122Y-129173714D01*
X126839123Y-129173712D01*
X126953092Y-129003146D01*
X127098146Y-128858092D01*
X127268712Y-128744123D01*
X127458235Y-128665620D01*
X127659430Y-128625600D01*
X127864570Y-128625600D01*
X128065765Y-128665620D01*
X128065765Y-128665620D01*
G37*
G36*
X112825765Y-128665620D02*
G01*
X113015288Y-128744123D01*
X113185854Y-128858092D01*
X113330908Y-129003146D01*
X113444877Y-129173712D01*
X113444878Y-129173714D01*
X113523380Y-129363235D01*
X113563400Y-129564430D01*
X113563400Y-129769570D01*
X113523380Y-129970765D01*
X113445346Y-130159157D01*
X113444877Y-130160288D01*
X113330908Y-130330854D01*
X113185854Y-130475908D01*
X113015288Y-130589877D01*
X113015287Y-130589878D01*
X113015286Y-130589878D01*
X112825765Y-130668380D01*
X112624570Y-130708400D01*
X112419430Y-130708400D01*
X112218235Y-130668380D01*
X112028714Y-130589878D01*
X112028713Y-130589878D01*
X112028712Y-130589877D01*
X111858146Y-130475908D01*
X111713092Y-130330854D01*
X111599123Y-130160288D01*
X111598655Y-130159157D01*
X111520620Y-129970765D01*
X111480600Y-129769570D01*
X111480600Y-129564430D01*
X111520620Y-129363235D01*
X111599122Y-129173714D01*
X111599123Y-129173712D01*
X111713092Y-129003146D01*
X111858146Y-128858092D01*
X112028712Y-128744123D01*
X112218235Y-128665620D01*
X112419430Y-128625600D01*
X112624570Y-128625600D01*
X112825765Y-128665620D01*
X112825765Y-128665620D01*
G37*
G36*
X157790343Y-127365361D02*
G01*
X157809568Y-127367254D01*
X157982234Y-127419632D01*
X158141365Y-127504689D01*
X158280844Y-127619156D01*
X158395311Y-127758635D01*
X158480368Y-127917766D01*
X158506557Y-128004099D01*
X158520444Y-128049877D01*
X158532746Y-128090433D01*
X158550432Y-128270000D01*
X158532746Y-128449567D01*
X158480368Y-128622234D01*
X158395311Y-128781365D01*
X158280844Y-128920844D01*
X158141365Y-129035311D01*
X157982234Y-129120368D01*
X157895900Y-129146557D01*
X157809568Y-129172746D01*
X157799739Y-129173714D01*
X157674998Y-129186000D01*
X157285002Y-129186000D01*
X157160261Y-129173714D01*
X157150432Y-129172746D01*
X157064100Y-129146557D01*
X156977766Y-129120368D01*
X156818635Y-129035311D01*
X156679156Y-128920844D01*
X156564689Y-128781365D01*
X156479632Y-128622234D01*
X156427254Y-128449567D01*
X156409568Y-128270000D01*
X156427254Y-128090433D01*
X156439557Y-128049877D01*
X156453443Y-128004100D01*
X156479632Y-127917766D01*
X156564689Y-127758635D01*
X156679156Y-127619156D01*
X156818635Y-127504689D01*
X156977766Y-127419632D01*
X157150432Y-127367254D01*
X157169657Y-127365361D01*
X157285002Y-127354000D01*
X157674998Y-127354000D01*
X157790343Y-127365361D01*
X157790343Y-127365361D01*
G37*
G36*
X112801443Y-126120782D02*
G01*
X112825765Y-126125620D01*
X113015288Y-126204123D01*
X113185854Y-126318092D01*
X113330908Y-126463146D01*
X113428511Y-126609219D01*
X113444878Y-126633714D01*
X113523380Y-126823235D01*
X113563400Y-127024430D01*
X113563400Y-127229570D01*
X113523380Y-127430765D01*
X113445346Y-127619157D01*
X113444877Y-127620288D01*
X113330908Y-127790854D01*
X113185854Y-127935908D01*
X113015288Y-128049877D01*
X113015287Y-128049878D01*
X113015286Y-128049878D01*
X112825765Y-128128380D01*
X112624570Y-128168400D01*
X112419430Y-128168400D01*
X112218235Y-128128380D01*
X112028714Y-128049878D01*
X112028713Y-128049878D01*
X112028712Y-128049877D01*
X111858146Y-127935908D01*
X111713092Y-127790854D01*
X111599123Y-127620288D01*
X111598655Y-127619157D01*
X111520620Y-127430765D01*
X111480600Y-127229570D01*
X111480600Y-127024430D01*
X111520620Y-126823235D01*
X111599122Y-126633714D01*
X111615489Y-126609219D01*
X111713092Y-126463146D01*
X111858146Y-126318092D01*
X112028712Y-126204123D01*
X112218235Y-126125620D01*
X112242557Y-126120782D01*
X112419430Y-126085600D01*
X112624570Y-126085600D01*
X112801443Y-126120782D01*
X112801443Y-126120782D01*
G37*
G36*
X128041443Y-126120782D02*
G01*
X128065765Y-126125620D01*
X128255288Y-126204123D01*
X128425854Y-126318092D01*
X128570908Y-126463146D01*
X128668511Y-126609219D01*
X128684878Y-126633714D01*
X128763380Y-126823235D01*
X128803400Y-127024430D01*
X128803400Y-127229570D01*
X128763380Y-127430765D01*
X128685346Y-127619157D01*
X128684877Y-127620288D01*
X128570908Y-127790854D01*
X128425854Y-127935908D01*
X128255288Y-128049877D01*
X128255287Y-128049878D01*
X128255286Y-128049878D01*
X128065765Y-128128380D01*
X127864570Y-128168400D01*
X127659430Y-128168400D01*
X127458235Y-128128380D01*
X127268714Y-128049878D01*
X127268713Y-128049878D01*
X127268712Y-128049877D01*
X127098146Y-127935908D01*
X126953092Y-127790854D01*
X126839123Y-127620288D01*
X126838655Y-127619157D01*
X126760620Y-127430765D01*
X126720600Y-127229570D01*
X126720600Y-127024430D01*
X126760620Y-126823235D01*
X126839122Y-126633714D01*
X126855489Y-126609219D01*
X126953092Y-126463146D01*
X127098146Y-126318092D01*
X127268712Y-126204123D01*
X127458235Y-126125620D01*
X127482557Y-126120782D01*
X127659430Y-126085600D01*
X127864570Y-126085600D01*
X128041443Y-126120782D01*
X128041443Y-126120782D01*
G37*
G36*
X151072719Y-125328520D02*
G01*
X151261880Y-125385901D01*
X151261883Y-125385902D01*
X151354333Y-125435318D01*
X151436212Y-125479083D01*
X151589015Y-125604485D01*
X151714417Y-125757288D01*
X151807599Y-125931619D01*
X151864980Y-126120780D01*
X151879500Y-126268206D01*
X151879500Y-126461793D01*
X151864980Y-126609219D01*
X151807599Y-126798380D01*
X151807598Y-126798383D01*
X151794314Y-126823235D01*
X151714417Y-126972712D01*
X151589015Y-127125515D01*
X151436212Y-127250917D01*
X151261881Y-127344099D01*
X151072720Y-127401480D01*
X150876000Y-127420855D01*
X150679281Y-127401480D01*
X150490120Y-127344099D01*
X150315788Y-127250917D01*
X150162985Y-127125515D01*
X150037583Y-126972712D01*
X149944401Y-126798381D01*
X149887020Y-126609220D01*
X149872500Y-126461794D01*
X149872500Y-126268207D01*
X149887020Y-126120781D01*
X149944401Y-125931620D01*
X149944402Y-125931617D01*
X149993818Y-125839167D01*
X150037583Y-125757288D01*
X150162985Y-125604485D01*
X150315788Y-125479083D01*
X150490119Y-125385901D01*
X150679280Y-125328520D01*
X150876000Y-125309145D01*
X151072719Y-125328520D01*
X151072719Y-125328520D01*
G37*
G36*
X148532719Y-125328520D02*
G01*
X148721880Y-125385901D01*
X148721883Y-125385902D01*
X148814333Y-125435318D01*
X148896212Y-125479083D01*
X149049015Y-125604485D01*
X149174417Y-125757288D01*
X149267599Y-125931619D01*
X149324980Y-126120780D01*
X149339500Y-126268206D01*
X149339500Y-126461793D01*
X149324980Y-126609219D01*
X149267599Y-126798380D01*
X149267598Y-126798383D01*
X149254314Y-126823235D01*
X149174417Y-126972712D01*
X149049015Y-127125515D01*
X148896212Y-127250917D01*
X148721881Y-127344099D01*
X148532720Y-127401480D01*
X148336000Y-127420855D01*
X148139281Y-127401480D01*
X147950120Y-127344099D01*
X147775788Y-127250917D01*
X147622985Y-127125515D01*
X147497583Y-126972712D01*
X147404401Y-126798381D01*
X147347020Y-126609220D01*
X147332500Y-126461794D01*
X147332500Y-126268207D01*
X147347020Y-126120781D01*
X147404401Y-125931620D01*
X147404402Y-125931617D01*
X147453818Y-125839167D01*
X147497583Y-125757288D01*
X147622985Y-125604485D01*
X147775788Y-125479083D01*
X147950119Y-125385901D01*
X148139280Y-125328520D01*
X148336000Y-125309145D01*
X148532719Y-125328520D01*
X148532719Y-125328520D01*
G37*
G36*
X146799500Y-127416000D02*
G01*
X144792500Y-127416000D01*
X144792500Y-125314000D01*
X146799500Y-125314000D01*
X146799500Y-127416000D01*
X146799500Y-127416000D01*
G37*
G36*
X158546000Y-126646000D02*
G01*
X156414000Y-126646000D01*
X156414000Y-124814000D01*
X158546000Y-124814000D01*
X158546000Y-126646000D01*
X158546000Y-126646000D01*
G37*
G36*
X128065765Y-123585620D02*
G01*
X128255288Y-123664123D01*
X128425854Y-123778092D01*
X128570908Y-123923146D01*
X128684877Y-124093712D01*
X128763380Y-124283235D01*
X128803400Y-124484431D01*
X128803400Y-124689569D01*
X128763380Y-124890765D01*
X128684877Y-125080288D01*
X128570908Y-125250854D01*
X128425854Y-125395908D01*
X128255288Y-125509877D01*
X128255287Y-125509878D01*
X128255286Y-125509878D01*
X128065765Y-125588380D01*
X127864570Y-125628400D01*
X127659430Y-125628400D01*
X127458235Y-125588380D01*
X127268714Y-125509878D01*
X127268713Y-125509878D01*
X127268712Y-125509877D01*
X127098146Y-125395908D01*
X126953092Y-125250854D01*
X126839123Y-125080288D01*
X126760620Y-124890765D01*
X126720600Y-124689569D01*
X126720600Y-124484431D01*
X126760620Y-124283235D01*
X126839123Y-124093712D01*
X126953092Y-123923146D01*
X127098146Y-123778092D01*
X127268712Y-123664123D01*
X127458235Y-123585620D01*
X127659430Y-123545600D01*
X127864570Y-123545600D01*
X128065765Y-123585620D01*
X128065765Y-123585620D01*
G37*
G36*
X112825765Y-123585620D02*
G01*
X113015288Y-123664123D01*
X113185854Y-123778092D01*
X113330908Y-123923146D01*
X113444877Y-124093712D01*
X113523380Y-124283235D01*
X113563400Y-124484431D01*
X113563400Y-124689569D01*
X113523380Y-124890765D01*
X113444877Y-125080288D01*
X113330908Y-125250854D01*
X113185854Y-125395908D01*
X113015288Y-125509877D01*
X113015287Y-125509878D01*
X113015286Y-125509878D01*
X112825765Y-125588380D01*
X112624570Y-125628400D01*
X112419430Y-125628400D01*
X112218235Y-125588380D01*
X112028714Y-125509878D01*
X112028713Y-125509878D01*
X112028712Y-125509877D01*
X111858146Y-125395908D01*
X111713092Y-125250854D01*
X111599123Y-125080288D01*
X111520620Y-124890765D01*
X111480600Y-124689569D01*
X111480600Y-124484431D01*
X111520620Y-124283235D01*
X111599123Y-124093712D01*
X111713092Y-123923146D01*
X111858146Y-123778092D01*
X112028712Y-123664123D01*
X112218235Y-123585620D01*
X112419430Y-123545600D01*
X112624570Y-123545600D01*
X112825765Y-123585620D01*
X112825765Y-123585620D01*
G37*
G36*
X112825765Y-121045620D02*
G01*
X113015288Y-121124123D01*
X113185854Y-121238092D01*
X113330908Y-121383146D01*
X113444877Y-121553712D01*
X113523380Y-121743235D01*
X113563400Y-121944431D01*
X113563400Y-122149569D01*
X113523380Y-122350765D01*
X113444877Y-122540288D01*
X113330908Y-122710854D01*
X113185854Y-122855908D01*
X113015288Y-122969877D01*
X113015287Y-122969878D01*
X113015286Y-122969878D01*
X112825765Y-123048380D01*
X112624570Y-123088400D01*
X112419430Y-123088400D01*
X112218235Y-123048380D01*
X112028714Y-122969878D01*
X112028713Y-122969878D01*
X112028712Y-122969877D01*
X111858146Y-122855908D01*
X111713092Y-122710854D01*
X111599123Y-122540288D01*
X111520620Y-122350765D01*
X111480600Y-122149569D01*
X111480600Y-121944431D01*
X111520620Y-121743235D01*
X111599123Y-121553712D01*
X111713092Y-121383146D01*
X111858146Y-121238092D01*
X112028712Y-121124123D01*
X112218235Y-121045620D01*
X112419430Y-121005600D01*
X112624570Y-121005600D01*
X112825765Y-121045620D01*
X112825765Y-121045620D01*
G37*
G36*
X128065765Y-121045620D02*
G01*
X128255288Y-121124123D01*
X128425854Y-121238092D01*
X128570908Y-121383146D01*
X128684877Y-121553712D01*
X128763380Y-121743235D01*
X128803400Y-121944431D01*
X128803400Y-122149569D01*
X128763380Y-122350765D01*
X128684877Y-122540288D01*
X128570908Y-122710854D01*
X128425854Y-122855908D01*
X128255288Y-122969877D01*
X128255287Y-122969878D01*
X128255286Y-122969878D01*
X128065765Y-123048380D01*
X127864570Y-123088400D01*
X127659430Y-123088400D01*
X127458235Y-123048380D01*
X127268714Y-122969878D01*
X127268713Y-122969878D01*
X127268712Y-122969877D01*
X127098146Y-122855908D01*
X126953092Y-122710854D01*
X126839123Y-122540288D01*
X126760620Y-122350765D01*
X126720600Y-122149569D01*
X126720600Y-121944431D01*
X126760620Y-121743235D01*
X126839123Y-121553712D01*
X126953092Y-121383146D01*
X127098146Y-121238092D01*
X127268712Y-121124123D01*
X127458235Y-121045620D01*
X127659430Y-121005600D01*
X127864570Y-121005600D01*
X128065765Y-121045620D01*
X128065765Y-121045620D01*
G37*
G36*
X128065765Y-118505620D02*
G01*
X128255288Y-118584123D01*
X128425854Y-118698092D01*
X128570908Y-118843146D01*
X128684877Y-119013712D01*
X128763380Y-119203235D01*
X128803400Y-119404431D01*
X128803400Y-119609569D01*
X128763380Y-119810765D01*
X128684877Y-120000288D01*
X128570908Y-120170854D01*
X128425854Y-120315908D01*
X128255288Y-120429877D01*
X128255287Y-120429878D01*
X128255286Y-120429878D01*
X128065765Y-120508380D01*
X127864570Y-120548400D01*
X127659430Y-120548400D01*
X127458235Y-120508380D01*
X127268714Y-120429878D01*
X127268713Y-120429878D01*
X127268712Y-120429877D01*
X127098146Y-120315908D01*
X126953092Y-120170854D01*
X126839123Y-120000288D01*
X126760620Y-119810765D01*
X126720600Y-119609569D01*
X126720600Y-119404431D01*
X126760620Y-119203235D01*
X126839123Y-119013712D01*
X126953092Y-118843146D01*
X127098146Y-118698092D01*
X127268712Y-118584123D01*
X127458235Y-118505620D01*
X127659430Y-118465600D01*
X127864570Y-118465600D01*
X128065765Y-118505620D01*
X128065765Y-118505620D01*
G37*
G36*
X112825765Y-118505620D02*
G01*
X113015288Y-118584123D01*
X113185854Y-118698092D01*
X113330908Y-118843146D01*
X113444877Y-119013712D01*
X113523380Y-119203235D01*
X113563400Y-119404431D01*
X113563400Y-119609569D01*
X113523380Y-119810765D01*
X113444877Y-120000288D01*
X113330908Y-120170854D01*
X113185854Y-120315908D01*
X113015288Y-120429877D01*
X113015287Y-120429878D01*
X113015286Y-120429878D01*
X112825765Y-120508380D01*
X112624570Y-120548400D01*
X112419430Y-120548400D01*
X112218235Y-120508380D01*
X112028714Y-120429878D01*
X112028713Y-120429878D01*
X112028712Y-120429877D01*
X111858146Y-120315908D01*
X111713092Y-120170854D01*
X111599123Y-120000288D01*
X111520620Y-119810765D01*
X111480600Y-119609569D01*
X111480600Y-119404431D01*
X111520620Y-119203235D01*
X111599123Y-119013712D01*
X111713092Y-118843146D01*
X111858146Y-118698092D01*
X112028712Y-118584123D01*
X112218235Y-118505620D01*
X112419430Y-118465600D01*
X112624570Y-118465600D01*
X112825765Y-118505620D01*
X112825765Y-118505620D01*
G37*
G36*
X128065765Y-115965620D02*
G01*
X128243809Y-116039368D01*
X128255288Y-116044123D01*
X128425854Y-116158092D01*
X128570908Y-116303146D01*
X128684877Y-116473712D01*
X128763380Y-116663235D01*
X128803400Y-116864431D01*
X128803400Y-117069569D01*
X128763380Y-117270765D01*
X128684877Y-117460288D01*
X128570908Y-117630854D01*
X128425854Y-117775908D01*
X128255288Y-117889877D01*
X128255287Y-117889878D01*
X128255286Y-117889878D01*
X128065765Y-117968380D01*
X127864570Y-118008400D01*
X127659430Y-118008400D01*
X127458235Y-117968380D01*
X127268714Y-117889878D01*
X127268713Y-117889878D01*
X127268712Y-117889877D01*
X127098146Y-117775908D01*
X126953092Y-117630854D01*
X126839123Y-117460288D01*
X126760620Y-117270765D01*
X126720600Y-117069569D01*
X126720600Y-116864431D01*
X126760620Y-116663235D01*
X126839123Y-116473712D01*
X126953092Y-116303146D01*
X127098146Y-116158092D01*
X127268712Y-116044123D01*
X127280192Y-116039368D01*
X127458235Y-115965620D01*
X127659430Y-115925600D01*
X127864570Y-115925600D01*
X128065765Y-115965620D01*
X128065765Y-115965620D01*
G37*
G36*
X112825765Y-115965620D02*
G01*
X113003809Y-116039368D01*
X113015288Y-116044123D01*
X113185854Y-116158092D01*
X113330908Y-116303146D01*
X113444877Y-116473712D01*
X113523380Y-116663235D01*
X113563400Y-116864431D01*
X113563400Y-117069569D01*
X113523380Y-117270765D01*
X113444877Y-117460288D01*
X113330908Y-117630854D01*
X113185854Y-117775908D01*
X113015288Y-117889877D01*
X113015287Y-117889878D01*
X113015286Y-117889878D01*
X112825765Y-117968380D01*
X112624570Y-118008400D01*
X112419430Y-118008400D01*
X112218235Y-117968380D01*
X112028714Y-117889878D01*
X112028713Y-117889878D01*
X112028712Y-117889877D01*
X111858146Y-117775908D01*
X111713092Y-117630854D01*
X111599123Y-117460288D01*
X111520620Y-117270765D01*
X111480600Y-117069569D01*
X111480600Y-116864431D01*
X111520620Y-116663235D01*
X111599123Y-116473712D01*
X111713092Y-116303146D01*
X111858146Y-116158092D01*
X112028712Y-116044123D01*
X112040192Y-116039368D01*
X112218235Y-115965620D01*
X112419430Y-115925600D01*
X112624570Y-115925600D01*
X112825765Y-115965620D01*
X112825765Y-115965620D01*
G37*
G36*
X157790343Y-114284361D02*
G01*
X157809568Y-114286254D01*
X157982234Y-114338632D01*
X158141365Y-114423689D01*
X158280844Y-114538156D01*
X158395311Y-114677635D01*
X158480368Y-114836766D01*
X158532746Y-115009433D01*
X158550432Y-115189000D01*
X158534587Y-115349877D01*
X158532746Y-115368568D01*
X158512964Y-115433779D01*
X158480368Y-115541234D01*
X158395311Y-115700365D01*
X158280844Y-115839844D01*
X158141365Y-115954311D01*
X157982234Y-116039368D01*
X157809568Y-116091746D01*
X157790343Y-116093639D01*
X157674998Y-116105000D01*
X157285002Y-116105000D01*
X157169657Y-116093639D01*
X157150432Y-116091746D01*
X156977766Y-116039368D01*
X156818635Y-115954311D01*
X156679156Y-115839844D01*
X156564689Y-115700365D01*
X156479632Y-115541234D01*
X156447036Y-115433779D01*
X156427254Y-115368568D01*
X156425413Y-115349877D01*
X156409568Y-115189000D01*
X156427254Y-115009433D01*
X156479632Y-114836766D01*
X156564689Y-114677635D01*
X156679156Y-114538156D01*
X156818635Y-114423689D01*
X156977766Y-114338632D01*
X157150432Y-114286254D01*
X157169657Y-114284361D01*
X157285002Y-114273000D01*
X157674998Y-114273000D01*
X157790343Y-114284361D01*
X157790343Y-114284361D01*
G37*
G36*
X146697000Y-115582000D02*
G01*
X144895000Y-115582000D01*
X144895000Y-113780000D01*
X146697000Y-113780000D01*
X146697000Y-115582000D01*
X146697000Y-115582000D01*
G37*
G36*
X150986443Y-113786519D02*
G01*
X151052627Y-113793037D01*
X151222466Y-113844557D01*
X151378991Y-113928222D01*
X151414729Y-113957552D01*
X151516186Y-114040814D01*
X151583826Y-114123235D01*
X151628778Y-114178009D01*
X151712443Y-114334534D01*
X151763963Y-114504373D01*
X151781359Y-114681000D01*
X151763963Y-114857627D01*
X151712443Y-115027466D01*
X151628778Y-115183991D01*
X151624667Y-115189000D01*
X151516186Y-115321186D01*
X151414729Y-115404448D01*
X151378991Y-115433778D01*
X151222466Y-115517443D01*
X151052627Y-115568963D01*
X150986443Y-115575481D01*
X150920260Y-115582000D01*
X150831740Y-115582000D01*
X150765557Y-115575481D01*
X150699373Y-115568963D01*
X150529534Y-115517443D01*
X150373009Y-115433778D01*
X150337271Y-115404448D01*
X150235814Y-115321186D01*
X150127333Y-115189000D01*
X150123222Y-115183991D01*
X150039557Y-115027466D01*
X149988037Y-114857627D01*
X149970641Y-114681000D01*
X149988037Y-114504373D01*
X150039557Y-114334534D01*
X150123222Y-114178009D01*
X150168174Y-114123235D01*
X150235814Y-114040814D01*
X150337271Y-113957552D01*
X150373009Y-113928222D01*
X150529534Y-113844557D01*
X150699373Y-113793037D01*
X150765557Y-113786519D01*
X150831740Y-113780000D01*
X150920260Y-113780000D01*
X150986443Y-113786519D01*
X150986443Y-113786519D01*
G37*
G36*
X148446443Y-113786519D02*
G01*
X148512627Y-113793037D01*
X148682466Y-113844557D01*
X148838991Y-113928222D01*
X148874729Y-113957552D01*
X148976186Y-114040814D01*
X149043826Y-114123235D01*
X149088778Y-114178009D01*
X149172443Y-114334534D01*
X149223963Y-114504373D01*
X149241359Y-114681000D01*
X149223963Y-114857627D01*
X149172443Y-115027466D01*
X149088778Y-115183991D01*
X149084667Y-115189000D01*
X148976186Y-115321186D01*
X148874729Y-115404448D01*
X148838991Y-115433778D01*
X148682466Y-115517443D01*
X148512627Y-115568963D01*
X148446443Y-115575481D01*
X148380260Y-115582000D01*
X148291740Y-115582000D01*
X148225557Y-115575481D01*
X148159373Y-115568963D01*
X147989534Y-115517443D01*
X147833009Y-115433778D01*
X147797271Y-115404448D01*
X147695814Y-115321186D01*
X147587333Y-115189000D01*
X147583222Y-115183991D01*
X147499557Y-115027466D01*
X147448037Y-114857627D01*
X147430641Y-114681000D01*
X147448037Y-114504373D01*
X147499557Y-114334534D01*
X147583222Y-114178009D01*
X147628174Y-114123235D01*
X147695814Y-114040814D01*
X147797271Y-113957552D01*
X147833009Y-113928222D01*
X147989534Y-113844557D01*
X148159373Y-113793037D01*
X148225557Y-113786519D01*
X148291740Y-113780000D01*
X148380260Y-113780000D01*
X148446443Y-113786519D01*
X148446443Y-113786519D01*
G37*
G36*
X128065765Y-113425620D02*
G01*
X128243809Y-113499368D01*
X128255288Y-113504123D01*
X128425854Y-113618092D01*
X128570908Y-113763146D01*
X128684877Y-113933712D01*
X128763380Y-114123235D01*
X128803400Y-114324431D01*
X128803400Y-114529569D01*
X128763380Y-114730765D01*
X128684877Y-114920288D01*
X128570908Y-115090854D01*
X128425854Y-115235908D01*
X128255288Y-115349877D01*
X128255287Y-115349878D01*
X128255286Y-115349878D01*
X128065765Y-115428380D01*
X127864570Y-115468400D01*
X127659430Y-115468400D01*
X127458235Y-115428380D01*
X127268714Y-115349878D01*
X127268713Y-115349878D01*
X127268712Y-115349877D01*
X127098146Y-115235908D01*
X126953092Y-115090854D01*
X126839123Y-114920288D01*
X126760620Y-114730765D01*
X126720600Y-114529569D01*
X126720600Y-114324431D01*
X126760620Y-114123235D01*
X126839123Y-113933712D01*
X126953092Y-113763146D01*
X127098146Y-113618092D01*
X127268712Y-113504123D01*
X127280192Y-113499368D01*
X127458235Y-113425620D01*
X127659430Y-113385600D01*
X127864570Y-113385600D01*
X128065765Y-113425620D01*
X128065765Y-113425620D01*
G37*
G36*
X112825765Y-113425620D02*
G01*
X113003809Y-113499368D01*
X113015288Y-113504123D01*
X113185854Y-113618092D01*
X113330908Y-113763146D01*
X113444877Y-113933712D01*
X113523380Y-114123235D01*
X113563400Y-114324431D01*
X113563400Y-114529569D01*
X113523380Y-114730765D01*
X113444877Y-114920288D01*
X113330908Y-115090854D01*
X113185854Y-115235908D01*
X113015288Y-115349877D01*
X113015287Y-115349878D01*
X113015286Y-115349878D01*
X112825765Y-115428380D01*
X112624570Y-115468400D01*
X112419430Y-115468400D01*
X112218235Y-115428380D01*
X112028714Y-115349878D01*
X112028713Y-115349878D01*
X112028712Y-115349877D01*
X111858146Y-115235908D01*
X111713092Y-115090854D01*
X111599123Y-114920288D01*
X111520620Y-114730765D01*
X111480600Y-114529569D01*
X111480600Y-114324431D01*
X111520620Y-114123235D01*
X111599123Y-113933712D01*
X111713092Y-113763146D01*
X111858146Y-113618092D01*
X112028712Y-113504123D01*
X112040192Y-113499368D01*
X112218235Y-113425620D01*
X112419430Y-113385600D01*
X112624570Y-113385600D01*
X112825765Y-113425620D01*
X112825765Y-113425620D01*
G37*
G36*
X157790343Y-111744361D02*
G01*
X157809568Y-111746254D01*
X157982234Y-111798632D01*
X158141365Y-111883689D01*
X158280844Y-111998156D01*
X158395311Y-112137635D01*
X158480368Y-112296766D01*
X158480368Y-112296767D01*
X158532746Y-112469432D01*
X158537100Y-112513641D01*
X158541881Y-112537675D01*
X158551258Y-112560313D01*
X158564872Y-112580688D01*
X158582199Y-112598015D01*
X158602573Y-112611628D01*
X158625212Y-112621006D01*
X158649245Y-112625786D01*
X158673749Y-112625786D01*
X158697783Y-112621005D01*
X158720421Y-112611628D01*
X158740796Y-112598014D01*
X158758123Y-112580687D01*
X158771736Y-112560313D01*
X158781114Y-112537674D01*
X158784094Y-112525774D01*
X158809683Y-112397127D01*
X158874775Y-112239981D01*
X158907660Y-112190765D01*
X158969276Y-112098551D01*
X159089551Y-111978276D01*
X159230979Y-111883776D01*
X159231189Y-111883689D01*
X159388126Y-111818683D01*
X159554951Y-111785500D01*
X159725049Y-111785500D01*
X159891874Y-111818683D01*
X160048811Y-111883689D01*
X160049021Y-111883776D01*
X160190449Y-111978276D01*
X160310724Y-112098551D01*
X160372340Y-112190765D01*
X160405225Y-112239981D01*
X160470317Y-112397126D01*
X160503500Y-112563951D01*
X160503500Y-112734049D01*
X160470317Y-112900874D01*
X160428746Y-113001234D01*
X160405224Y-113058021D01*
X160310724Y-113199449D01*
X160190449Y-113319724D01*
X160049021Y-113414224D01*
X160049020Y-113414225D01*
X160049019Y-113414225D01*
X159891874Y-113479317D01*
X159725049Y-113512500D01*
X159554951Y-113512500D01*
X159388126Y-113479317D01*
X159230981Y-113414225D01*
X159230980Y-113414225D01*
X159230979Y-113414224D01*
X159089551Y-113319724D01*
X158969276Y-113199449D01*
X158874776Y-113058021D01*
X158851254Y-113001234D01*
X158809683Y-112900873D01*
X158784094Y-112772226D01*
X158776981Y-112748777D01*
X158765430Y-112727166D01*
X158749885Y-112708224D01*
X158730943Y-112692678D01*
X158709333Y-112681127D01*
X158685884Y-112674014D01*
X158661498Y-112671612D01*
X158637112Y-112674014D01*
X158613663Y-112681127D01*
X158592052Y-112692678D01*
X158573110Y-112708223D01*
X158557564Y-112727165D01*
X158546013Y-112748775D01*
X158538900Y-112772224D01*
X158537100Y-112784356D01*
X158532746Y-112828567D01*
X158480368Y-113001234D01*
X158395311Y-113160365D01*
X158280844Y-113299844D01*
X158141365Y-113414311D01*
X157982234Y-113499368D01*
X157809568Y-113551746D01*
X157790343Y-113553639D01*
X157674998Y-113565000D01*
X157285002Y-113565000D01*
X157169657Y-113553639D01*
X157150432Y-113551746D01*
X156977766Y-113499368D01*
X156818635Y-113414311D01*
X156679156Y-113299844D01*
X156564689Y-113160365D01*
X156479632Y-113001234D01*
X156427254Y-112828567D01*
X156409568Y-112649000D01*
X156427254Y-112469433D01*
X156479632Y-112296766D01*
X156564689Y-112137635D01*
X156679156Y-111998156D01*
X156818635Y-111883689D01*
X156977766Y-111798632D01*
X157150432Y-111746254D01*
X157169657Y-111744361D01*
X157285002Y-111733000D01*
X157674998Y-111733000D01*
X157790343Y-111744361D01*
X157790343Y-111744361D01*
G37*
G36*
X112825765Y-110885620D02*
G01*
X113003809Y-110959368D01*
X113015288Y-110964123D01*
X113185854Y-111078092D01*
X113330908Y-111223146D01*
X113444877Y-111393712D01*
X113523380Y-111583235D01*
X113563400Y-111784431D01*
X113563400Y-111989569D01*
X113523380Y-112190765D01*
X113444877Y-112380288D01*
X113330908Y-112550854D01*
X113185854Y-112695908D01*
X113015288Y-112809877D01*
X113015287Y-112809878D01*
X113015286Y-112809878D01*
X112825765Y-112888380D01*
X112624570Y-112928400D01*
X112419430Y-112928400D01*
X112218235Y-112888380D01*
X112028714Y-112809878D01*
X112028713Y-112809878D01*
X112028712Y-112809877D01*
X111858146Y-112695908D01*
X111713092Y-112550854D01*
X111599123Y-112380288D01*
X111520620Y-112190765D01*
X111480600Y-111989569D01*
X111480600Y-111784431D01*
X111520620Y-111583235D01*
X111599123Y-111393712D01*
X111713092Y-111223146D01*
X111858146Y-111078092D01*
X112028712Y-110964123D01*
X112040192Y-110959368D01*
X112218235Y-110885620D01*
X112419430Y-110845600D01*
X112624570Y-110845600D01*
X112825765Y-110885620D01*
X112825765Y-110885620D01*
G37*
G36*
X128065765Y-110885620D02*
G01*
X128243809Y-110959368D01*
X128255288Y-110964123D01*
X128425854Y-111078092D01*
X128570908Y-111223146D01*
X128684877Y-111393712D01*
X128763380Y-111583235D01*
X128803400Y-111784431D01*
X128803400Y-111989569D01*
X128763380Y-112190765D01*
X128684877Y-112380288D01*
X128570908Y-112550854D01*
X128425854Y-112695908D01*
X128255288Y-112809877D01*
X128255287Y-112809878D01*
X128255286Y-112809878D01*
X128065765Y-112888380D01*
X127864570Y-112928400D01*
X127659430Y-112928400D01*
X127458235Y-112888380D01*
X127268714Y-112809878D01*
X127268713Y-112809878D01*
X127268712Y-112809877D01*
X127098146Y-112695908D01*
X126953092Y-112550854D01*
X126839123Y-112380288D01*
X126760620Y-112190765D01*
X126720600Y-111989569D01*
X126720600Y-111784431D01*
X126760620Y-111583235D01*
X126839123Y-111393712D01*
X126953092Y-111223146D01*
X127098146Y-111078092D01*
X127268712Y-110964123D01*
X127280192Y-110959368D01*
X127458235Y-110885620D01*
X127659430Y-110845600D01*
X127864570Y-110845600D01*
X128065765Y-110885620D01*
X128065765Y-110885620D01*
G37*
G36*
X157790343Y-109204361D02*
G01*
X157809568Y-109206254D01*
X157895900Y-109232443D01*
X157982234Y-109258632D01*
X158141365Y-109343689D01*
X158280844Y-109458156D01*
X158395311Y-109597635D01*
X158480368Y-109756766D01*
X158532746Y-109929433D01*
X158550432Y-110109000D01*
X158532746Y-110288567D01*
X158480368Y-110461234D01*
X158395311Y-110620365D01*
X158280844Y-110759844D01*
X158141365Y-110874311D01*
X157982234Y-110959368D01*
X157809568Y-111011746D01*
X157790343Y-111013639D01*
X157674998Y-111025000D01*
X157285002Y-111025000D01*
X157169657Y-111013639D01*
X157150432Y-111011746D01*
X156977766Y-110959368D01*
X156818635Y-110874311D01*
X156679156Y-110759844D01*
X156564689Y-110620365D01*
X156479632Y-110461234D01*
X156427254Y-110288567D01*
X156409568Y-110109000D01*
X156427254Y-109929433D01*
X156479632Y-109756766D01*
X156564689Y-109597635D01*
X156679156Y-109458156D01*
X156818635Y-109343689D01*
X156977766Y-109258632D01*
X157064100Y-109232443D01*
X157150432Y-109206254D01*
X157169657Y-109204361D01*
X157285002Y-109193000D01*
X157674998Y-109193000D01*
X157790343Y-109204361D01*
X157790343Y-109204361D01*
G37*
G36*
X127943082Y-108321217D02*
G01*
X128065765Y-108345620D01*
X128255288Y-108424123D01*
X128425854Y-108538092D01*
X128570908Y-108683146D01*
X128571954Y-108684712D01*
X128684878Y-108853714D01*
X128763380Y-109043235D01*
X128777353Y-109113480D01*
X128803400Y-109244431D01*
X128803400Y-109449569D01*
X128763380Y-109650765D01*
X128684877Y-109840288D01*
X128570908Y-110010854D01*
X128425854Y-110155908D01*
X128255288Y-110269877D01*
X128255287Y-110269878D01*
X128255286Y-110269878D01*
X128065765Y-110348380D01*
X127864570Y-110388400D01*
X127659430Y-110388400D01*
X127458235Y-110348380D01*
X127268714Y-110269878D01*
X127268713Y-110269878D01*
X127268712Y-110269877D01*
X127098146Y-110155908D01*
X126953092Y-110010854D01*
X126839123Y-109840288D01*
X126760620Y-109650765D01*
X126720600Y-109449569D01*
X126720600Y-109244431D01*
X126746648Y-109113480D01*
X126760620Y-109043235D01*
X126839122Y-108853714D01*
X126952046Y-108684712D01*
X126953092Y-108683146D01*
X127098146Y-108538092D01*
X127268712Y-108424123D01*
X127458235Y-108345620D01*
X127580918Y-108321217D01*
X127659430Y-108305600D01*
X127864570Y-108305600D01*
X127943082Y-108321217D01*
X127943082Y-108321217D01*
G37*
G36*
X112703082Y-108321217D02*
G01*
X112825765Y-108345620D01*
X113015288Y-108424123D01*
X113185854Y-108538092D01*
X113330908Y-108683146D01*
X113331954Y-108684712D01*
X113444878Y-108853714D01*
X113523380Y-109043235D01*
X113537353Y-109113480D01*
X113563400Y-109244431D01*
X113563400Y-109449569D01*
X113523380Y-109650765D01*
X113444877Y-109840288D01*
X113330908Y-110010854D01*
X113185854Y-110155908D01*
X113015288Y-110269877D01*
X113015287Y-110269878D01*
X113015286Y-110269878D01*
X112825765Y-110348380D01*
X112624570Y-110388400D01*
X112419430Y-110388400D01*
X112218235Y-110348380D01*
X112028714Y-110269878D01*
X112028713Y-110269878D01*
X112028712Y-110269877D01*
X111858146Y-110155908D01*
X111713092Y-110010854D01*
X111599123Y-109840288D01*
X111520620Y-109650765D01*
X111480600Y-109449569D01*
X111480600Y-109244431D01*
X111506648Y-109113480D01*
X111520620Y-109043235D01*
X111599122Y-108853714D01*
X111712046Y-108684712D01*
X111713092Y-108683146D01*
X111858146Y-108538092D01*
X112028712Y-108424123D01*
X112218235Y-108345620D01*
X112340918Y-108321217D01*
X112419430Y-108305600D01*
X112624570Y-108305600D01*
X112703082Y-108321217D01*
X112703082Y-108321217D01*
G37*
G36*
X148532719Y-107040520D02*
G01*
X148721880Y-107097901D01*
X148721883Y-107097902D01*
X148814333Y-107147318D01*
X148896212Y-107191083D01*
X149049015Y-107316485D01*
X149174417Y-107469288D01*
X149267599Y-107643619D01*
X149324980Y-107832780D01*
X149339500Y-107980206D01*
X149339500Y-108173793D01*
X149324980Y-108321219D01*
X149275298Y-108485000D01*
X149267598Y-108510383D01*
X149252787Y-108538092D01*
X149174417Y-108684712D01*
X149049015Y-108837515D01*
X148896212Y-108962917D01*
X148721881Y-109056099D01*
X148532720Y-109113480D01*
X148336000Y-109132855D01*
X148139281Y-109113480D01*
X147950120Y-109056099D01*
X147775788Y-108962917D01*
X147622985Y-108837515D01*
X147497583Y-108684712D01*
X147404401Y-108510381D01*
X147347020Y-108321220D01*
X147332500Y-108173794D01*
X147332500Y-107980207D01*
X147347020Y-107832781D01*
X147404401Y-107643620D01*
X147404402Y-107643617D01*
X147496746Y-107470854D01*
X147497583Y-107469288D01*
X147622985Y-107316485D01*
X147775788Y-107191083D01*
X147950119Y-107097901D01*
X148139280Y-107040520D01*
X148336000Y-107021145D01*
X148532719Y-107040520D01*
X148532719Y-107040520D01*
G37*
G36*
X151072719Y-107040520D02*
G01*
X151261880Y-107097901D01*
X151261883Y-107097902D01*
X151354333Y-107147318D01*
X151436212Y-107191083D01*
X151589015Y-107316485D01*
X151714417Y-107469288D01*
X151807599Y-107643619D01*
X151864980Y-107832780D01*
X151879500Y-107980206D01*
X151879500Y-108173793D01*
X151864980Y-108321219D01*
X151815298Y-108485000D01*
X151807598Y-108510383D01*
X151792787Y-108538092D01*
X151714417Y-108684712D01*
X151589015Y-108837515D01*
X151436212Y-108962917D01*
X151261881Y-109056099D01*
X151072720Y-109113480D01*
X150876000Y-109132855D01*
X150679281Y-109113480D01*
X150490120Y-109056099D01*
X150315788Y-108962917D01*
X150162985Y-108837515D01*
X150037583Y-108684712D01*
X149944401Y-108510381D01*
X149887020Y-108321220D01*
X149872500Y-108173794D01*
X149872500Y-107980207D01*
X149887020Y-107832781D01*
X149944401Y-107643620D01*
X149944402Y-107643617D01*
X150036746Y-107470854D01*
X150037583Y-107469288D01*
X150162985Y-107316485D01*
X150315788Y-107191083D01*
X150490119Y-107097901D01*
X150679280Y-107040520D01*
X150876000Y-107021145D01*
X151072719Y-107040520D01*
X151072719Y-107040520D01*
G37*
G36*
X146799500Y-109128000D02*
G01*
X144792500Y-109128000D01*
X144792500Y-107026000D01*
X146799500Y-107026000D01*
X146799500Y-109128000D01*
X146799500Y-109128000D01*
G37*
G36*
X158546000Y-108485000D02*
G01*
X156414000Y-108485000D01*
X156414000Y-106653000D01*
X158546000Y-106653000D01*
X158546000Y-108485000D01*
X158546000Y-108485000D01*
G37*
G36*
X112825765Y-105805620D02*
G01*
X113015288Y-105884123D01*
X113185854Y-105998092D01*
X113330908Y-106143146D01*
X113330909Y-106143148D01*
X113444878Y-106313714D01*
X113523380Y-106503235D01*
X113563400Y-106704430D01*
X113563400Y-106909570D01*
X113525939Y-107097901D01*
X113523380Y-107110765D01*
X113444877Y-107300288D01*
X113330908Y-107470854D01*
X113185854Y-107615908D01*
X113015288Y-107729877D01*
X113015287Y-107729878D01*
X113015286Y-107729878D01*
X112825765Y-107808380D01*
X112624570Y-107848400D01*
X112419430Y-107848400D01*
X112218235Y-107808380D01*
X112028714Y-107729878D01*
X112028713Y-107729878D01*
X112028712Y-107729877D01*
X111858146Y-107615908D01*
X111713092Y-107470854D01*
X111599123Y-107300288D01*
X111520620Y-107110765D01*
X111518061Y-107097901D01*
X111480600Y-106909570D01*
X111480600Y-106704430D01*
X111520620Y-106503235D01*
X111599122Y-106313714D01*
X111713091Y-106143148D01*
X111713092Y-106143146D01*
X111858146Y-105998092D01*
X112028712Y-105884123D01*
X112218235Y-105805620D01*
X112419430Y-105765600D01*
X112624570Y-105765600D01*
X112825765Y-105805620D01*
X112825765Y-105805620D01*
G37*
G36*
X128065765Y-105805620D02*
G01*
X128255288Y-105884123D01*
X128425854Y-105998092D01*
X128570908Y-106143146D01*
X128570909Y-106143148D01*
X128684878Y-106313714D01*
X128763380Y-106503235D01*
X128803400Y-106704430D01*
X128803400Y-106909570D01*
X128765939Y-107097901D01*
X128763380Y-107110765D01*
X128684877Y-107300288D01*
X128570908Y-107470854D01*
X128425854Y-107615908D01*
X128255288Y-107729877D01*
X128255287Y-107729878D01*
X128255286Y-107729878D01*
X128065765Y-107808380D01*
X127864570Y-107848400D01*
X127659430Y-107848400D01*
X127458235Y-107808380D01*
X127268714Y-107729878D01*
X127268713Y-107729878D01*
X127268712Y-107729877D01*
X127098146Y-107615908D01*
X126953092Y-107470854D01*
X126839123Y-107300288D01*
X126760620Y-107110765D01*
X126758061Y-107097901D01*
X126720600Y-106909570D01*
X126720600Y-106704430D01*
X126760620Y-106503235D01*
X126839122Y-106313714D01*
X126953091Y-106143148D01*
X126953092Y-106143146D01*
X127098146Y-105998092D01*
X127268712Y-105884123D01*
X127458235Y-105805620D01*
X127659430Y-105765600D01*
X127864570Y-105765600D01*
X128065765Y-105805620D01*
X128065765Y-105805620D01*
G37*
G36*
X119490443Y-100705519D02*
G01*
X119556627Y-100712037D01*
X119726466Y-100763557D01*
X119882991Y-100847222D01*
X119918729Y-100876552D01*
X120020186Y-100959814D01*
X120103448Y-101061271D01*
X120132778Y-101097009D01*
X120216443Y-101253534D01*
X120267963Y-101423373D01*
X120285359Y-101600000D01*
X120267963Y-101776627D01*
X120216443Y-101946466D01*
X120132778Y-102102991D01*
X120103448Y-102138729D01*
X120020186Y-102240186D01*
X119918729Y-102323448D01*
X119882991Y-102352778D01*
X119726466Y-102436443D01*
X119556627Y-102487963D01*
X119490442Y-102494482D01*
X119424260Y-102501000D01*
X119335740Y-102501000D01*
X119269558Y-102494482D01*
X119203373Y-102487963D01*
X119033534Y-102436443D01*
X118877009Y-102352778D01*
X118841271Y-102323448D01*
X118739814Y-102240186D01*
X118656552Y-102138729D01*
X118627222Y-102102991D01*
X118543557Y-101946466D01*
X118492037Y-101776627D01*
X118474641Y-101600000D01*
X118492037Y-101423373D01*
X118543557Y-101253534D01*
X118627222Y-101097009D01*
X118656552Y-101061271D01*
X118739814Y-100959814D01*
X118841271Y-100876552D01*
X118877009Y-100847222D01*
X119033534Y-100763557D01*
X119203373Y-100712037D01*
X119269557Y-100705519D01*
X119335740Y-100699000D01*
X119424260Y-100699000D01*
X119490443Y-100705519D01*
X119490443Y-100705519D01*
G37*
G36*
X122030443Y-100705519D02*
G01*
X122096627Y-100712037D01*
X122266466Y-100763557D01*
X122422991Y-100847222D01*
X122458729Y-100876552D01*
X122560186Y-100959814D01*
X122643448Y-101061271D01*
X122672778Y-101097009D01*
X122756443Y-101253534D01*
X122807963Y-101423373D01*
X122825359Y-101600000D01*
X122807963Y-101776627D01*
X122756443Y-101946466D01*
X122672778Y-102102991D01*
X122643448Y-102138729D01*
X122560186Y-102240186D01*
X122458729Y-102323448D01*
X122422991Y-102352778D01*
X122266466Y-102436443D01*
X122096627Y-102487963D01*
X122030442Y-102494482D01*
X121964260Y-102501000D01*
X121875740Y-102501000D01*
X121809558Y-102494482D01*
X121743373Y-102487963D01*
X121573534Y-102436443D01*
X121417009Y-102352778D01*
X121381271Y-102323448D01*
X121279814Y-102240186D01*
X121196552Y-102138729D01*
X121167222Y-102102991D01*
X121083557Y-101946466D01*
X121032037Y-101776627D01*
X121014641Y-101600000D01*
X121032037Y-101423373D01*
X121083557Y-101253534D01*
X121167222Y-101097009D01*
X121196552Y-101061271D01*
X121279814Y-100959814D01*
X121381271Y-100876552D01*
X121417009Y-100847222D01*
X121573534Y-100763557D01*
X121743373Y-100712037D01*
X121809557Y-100705519D01*
X121875740Y-100699000D01*
X121964260Y-100699000D01*
X122030443Y-100705519D01*
X122030443Y-100705519D01*
G37*
G36*
X117741000Y-102501000D02*
G01*
X115939000Y-102501000D01*
X115939000Y-100699000D01*
X117741000Y-100699000D01*
X117741000Y-102501000D01*
X117741000Y-102501000D01*
G37*
G36*
X152342719Y-96880520D02*
G01*
X152531880Y-96937901D01*
X152531883Y-96937902D01*
X152624333Y-96987318D01*
X152706212Y-97031083D01*
X152859015Y-97156485D01*
X152984417Y-97309288D01*
X153077599Y-97483619D01*
X153134980Y-97672780D01*
X153149500Y-97820206D01*
X153149500Y-98013793D01*
X153134980Y-98161219D01*
X153077599Y-98350380D01*
X153077598Y-98350383D01*
X153028182Y-98442833D01*
X152984417Y-98524712D01*
X152859015Y-98677515D01*
X152706212Y-98802917D01*
X152531881Y-98896099D01*
X152342720Y-98953480D01*
X152146000Y-98972855D01*
X151949281Y-98953480D01*
X151760120Y-98896099D01*
X151585788Y-98802917D01*
X151432985Y-98677515D01*
X151307583Y-98524712D01*
X151214401Y-98350381D01*
X151157020Y-98161220D01*
X151142500Y-98013794D01*
X151142500Y-97820207D01*
X151157020Y-97672781D01*
X151214401Y-97483620D01*
X151214402Y-97483617D01*
X151263818Y-97391167D01*
X151307583Y-97309288D01*
X151432985Y-97156485D01*
X151585788Y-97031083D01*
X151760119Y-96937901D01*
X151949280Y-96880520D01*
X152146000Y-96861145D01*
X152342719Y-96880520D01*
X152342719Y-96880520D01*
G37*
G36*
X149802719Y-96880520D02*
G01*
X149991880Y-96937901D01*
X149991883Y-96937902D01*
X150084333Y-96987318D01*
X150166212Y-97031083D01*
X150319015Y-97156485D01*
X150444417Y-97309288D01*
X150537599Y-97483619D01*
X150594980Y-97672780D01*
X150609500Y-97820206D01*
X150609500Y-98013793D01*
X150594980Y-98161219D01*
X150537599Y-98350380D01*
X150537598Y-98350383D01*
X150488182Y-98442833D01*
X150444417Y-98524712D01*
X150319015Y-98677515D01*
X150166212Y-98802917D01*
X149991881Y-98896099D01*
X149802720Y-98953480D01*
X149606000Y-98972855D01*
X149409281Y-98953480D01*
X149220120Y-98896099D01*
X149045788Y-98802917D01*
X148892985Y-98677515D01*
X148767583Y-98524712D01*
X148674401Y-98350381D01*
X148617020Y-98161220D01*
X148602500Y-98013794D01*
X148602500Y-97820207D01*
X148617020Y-97672781D01*
X148674401Y-97483620D01*
X148674402Y-97483617D01*
X148723818Y-97391167D01*
X148767583Y-97309288D01*
X148892985Y-97156485D01*
X149045788Y-97031083D01*
X149220119Y-96937901D01*
X149409280Y-96880520D01*
X149606000Y-96861145D01*
X149802719Y-96880520D01*
X149802719Y-96880520D01*
G37*
G36*
X148069500Y-98968000D02*
G01*
X146062500Y-98968000D01*
X146062500Y-96866000D01*
X148069500Y-96866000D01*
X148069500Y-98968000D01*
X148069500Y-98968000D01*
G37*
G36*
X115201000Y-95643000D02*
G01*
X113399000Y-95643000D01*
X113399000Y-93841000D01*
X115201000Y-93841000D01*
X115201000Y-95643000D01*
X115201000Y-95643000D01*
G37*
G36*
X116950443Y-93847519D02*
G01*
X117016627Y-93854037D01*
X117186466Y-93905557D01*
X117342991Y-93989222D01*
X117378729Y-94018552D01*
X117480186Y-94101814D01*
X117563448Y-94203271D01*
X117592778Y-94239009D01*
X117676443Y-94395534D01*
X117727963Y-94565373D01*
X117745359Y-94742000D01*
X117727963Y-94918627D01*
X117676443Y-95088466D01*
X117592778Y-95244991D01*
X117584411Y-95255186D01*
X117480186Y-95382186D01*
X117378729Y-95465448D01*
X117342991Y-95494778D01*
X117186466Y-95578443D01*
X117016627Y-95629963D01*
X116950442Y-95636482D01*
X116884260Y-95643000D01*
X116795740Y-95643000D01*
X116729558Y-95636482D01*
X116663373Y-95629963D01*
X116493534Y-95578443D01*
X116337009Y-95494778D01*
X116301271Y-95465448D01*
X116199814Y-95382186D01*
X116095589Y-95255186D01*
X116087222Y-95244991D01*
X116003557Y-95088466D01*
X115952037Y-94918627D01*
X115934641Y-94742000D01*
X115952037Y-94565373D01*
X116003557Y-94395534D01*
X116087222Y-94239009D01*
X116116552Y-94203271D01*
X116199814Y-94101814D01*
X116301271Y-94018552D01*
X116337009Y-93989222D01*
X116493534Y-93905557D01*
X116663373Y-93854037D01*
X116729557Y-93847519D01*
X116795740Y-93841000D01*
X116884260Y-93841000D01*
X116950443Y-93847519D01*
X116950443Y-93847519D01*
G37*
G36*
X119490443Y-93847519D02*
G01*
X119556627Y-93854037D01*
X119726466Y-93905557D01*
X119882991Y-93989222D01*
X119918729Y-94018552D01*
X120020186Y-94101814D01*
X120103448Y-94203271D01*
X120132778Y-94239009D01*
X120216443Y-94395534D01*
X120267963Y-94565373D01*
X120285359Y-94742000D01*
X120267963Y-94918627D01*
X120216443Y-95088466D01*
X120132778Y-95244991D01*
X120124411Y-95255186D01*
X120020186Y-95382186D01*
X119918729Y-95465448D01*
X119882991Y-95494778D01*
X119726466Y-95578443D01*
X119556627Y-95629963D01*
X119490442Y-95636482D01*
X119424260Y-95643000D01*
X119335740Y-95643000D01*
X119269558Y-95636482D01*
X119203373Y-95629963D01*
X119033534Y-95578443D01*
X118877009Y-95494778D01*
X118841271Y-95465448D01*
X118739814Y-95382186D01*
X118635589Y-95255186D01*
X118627222Y-95244991D01*
X118543557Y-95088466D01*
X118492037Y-94918627D01*
X118474641Y-94742000D01*
X118492037Y-94565373D01*
X118543557Y-94395534D01*
X118627222Y-94239009D01*
X118656552Y-94203271D01*
X118739814Y-94101814D01*
X118841271Y-94018552D01*
X118877009Y-93989222D01*
X119033534Y-93905557D01*
X119203373Y-93854037D01*
X119269557Y-93847519D01*
X119335740Y-93841000D01*
X119424260Y-93841000D01*
X119490443Y-93847519D01*
X119490443Y-93847519D01*
G37*
G36*
X122030443Y-93847519D02*
G01*
X122096627Y-93854037D01*
X122266466Y-93905557D01*
X122422991Y-93989222D01*
X122458729Y-94018552D01*
X122560186Y-94101814D01*
X122643448Y-94203271D01*
X122672778Y-94239009D01*
X122756443Y-94395534D01*
X122807963Y-94565373D01*
X122825359Y-94742000D01*
X122807963Y-94918627D01*
X122756443Y-95088466D01*
X122672778Y-95244991D01*
X122664411Y-95255186D01*
X122560186Y-95382186D01*
X122458729Y-95465448D01*
X122422991Y-95494778D01*
X122266466Y-95578443D01*
X122096627Y-95629963D01*
X122030442Y-95636482D01*
X121964260Y-95643000D01*
X121875740Y-95643000D01*
X121809558Y-95636482D01*
X121743373Y-95629963D01*
X121573534Y-95578443D01*
X121417009Y-95494778D01*
X121381271Y-95465448D01*
X121279814Y-95382186D01*
X121175589Y-95255186D01*
X121167222Y-95244991D01*
X121083557Y-95088466D01*
X121032037Y-94918627D01*
X121014641Y-94742000D01*
X121032037Y-94565373D01*
X121083557Y-94395534D01*
X121167222Y-94239009D01*
X121196552Y-94203271D01*
X121279814Y-94101814D01*
X121381271Y-94018552D01*
X121417009Y-93989222D01*
X121573534Y-93905557D01*
X121743373Y-93854037D01*
X121809557Y-93847519D01*
X121875740Y-93841000D01*
X121964260Y-93841000D01*
X122030443Y-93847519D01*
X122030443Y-93847519D01*
G37*
G36*
X158860443Y-93720519D02*
G01*
X158926627Y-93727037D01*
X159096466Y-93778557D01*
X159252991Y-93862222D01*
X159288729Y-93891552D01*
X159390186Y-93974814D01*
X159473448Y-94076271D01*
X159502778Y-94112009D01*
X159586443Y-94268534D01*
X159637963Y-94438373D01*
X159655359Y-94615000D01*
X159637963Y-94791627D01*
X159586443Y-94961466D01*
X159502778Y-95117991D01*
X159473448Y-95153729D01*
X159390186Y-95255186D01*
X159288729Y-95338448D01*
X159252991Y-95367778D01*
X159096466Y-95451443D01*
X158926627Y-95502963D01*
X158860443Y-95509481D01*
X158794260Y-95516000D01*
X158705740Y-95516000D01*
X158639557Y-95509481D01*
X158573373Y-95502963D01*
X158403534Y-95451443D01*
X158247009Y-95367778D01*
X158211271Y-95338448D01*
X158109814Y-95255186D01*
X158026552Y-95153729D01*
X157997222Y-95117991D01*
X157913557Y-94961466D01*
X157862037Y-94791627D01*
X157844641Y-94615000D01*
X157862037Y-94438373D01*
X157913557Y-94268534D01*
X157997222Y-94112009D01*
X158026552Y-94076271D01*
X158109814Y-93974814D01*
X158211271Y-93891552D01*
X158247009Y-93862222D01*
X158403534Y-93778557D01*
X158573373Y-93727037D01*
X158639558Y-93720518D01*
X158705740Y-93714000D01*
X158794260Y-93714000D01*
X158860443Y-93720519D01*
X158860443Y-93720519D01*
G37*
G36*
X152342719Y-91292520D02*
G01*
X152531880Y-91349901D01*
X152531883Y-91349902D01*
X152624333Y-91399318D01*
X152706212Y-91443083D01*
X152859015Y-91568485D01*
X152984417Y-91721288D01*
X153077599Y-91895619D01*
X153134980Y-92084780D01*
X153149500Y-92232206D01*
X153149500Y-92425793D01*
X153134980Y-92573219D01*
X153133532Y-92577991D01*
X153077598Y-92762383D01*
X153042643Y-92827778D01*
X152984417Y-92936712D01*
X152859015Y-93089515D01*
X152706212Y-93214917D01*
X152531881Y-93308099D01*
X152342720Y-93365480D01*
X152146000Y-93384855D01*
X151949281Y-93365480D01*
X151760120Y-93308099D01*
X151585788Y-93214917D01*
X151432985Y-93089515D01*
X151307583Y-92936712D01*
X151214401Y-92762381D01*
X151157020Y-92573220D01*
X151142500Y-92425794D01*
X151142500Y-92232207D01*
X151157020Y-92084781D01*
X151214401Y-91895620D01*
X151214402Y-91895617D01*
X151303710Y-91728534D01*
X151307583Y-91721288D01*
X151432985Y-91568485D01*
X151585788Y-91443083D01*
X151760119Y-91349901D01*
X151949280Y-91292520D01*
X152146000Y-91273145D01*
X152342719Y-91292520D01*
X152342719Y-91292520D01*
G37*
G36*
X149802719Y-91292520D02*
G01*
X149991880Y-91349901D01*
X149991883Y-91349902D01*
X150084333Y-91399318D01*
X150166212Y-91443083D01*
X150319015Y-91568485D01*
X150444417Y-91721288D01*
X150537599Y-91895619D01*
X150594980Y-92084780D01*
X150609500Y-92232206D01*
X150609500Y-92425793D01*
X150594980Y-92573219D01*
X150593532Y-92577991D01*
X150537598Y-92762383D01*
X150502643Y-92827778D01*
X150444417Y-92936712D01*
X150319015Y-93089515D01*
X150166212Y-93214917D01*
X149991881Y-93308099D01*
X149802720Y-93365480D01*
X149606000Y-93384855D01*
X149409281Y-93365480D01*
X149220120Y-93308099D01*
X149045788Y-93214917D01*
X148892985Y-93089515D01*
X148767583Y-92936712D01*
X148674401Y-92762381D01*
X148617020Y-92573220D01*
X148602500Y-92425794D01*
X148602500Y-92232207D01*
X148617020Y-92084781D01*
X148674401Y-91895620D01*
X148674402Y-91895617D01*
X148763710Y-91728534D01*
X148767583Y-91721288D01*
X148892985Y-91568485D01*
X149045788Y-91443083D01*
X149220119Y-91349901D01*
X149409280Y-91292520D01*
X149606000Y-91273145D01*
X149802719Y-91292520D01*
X149802719Y-91292520D01*
G37*
G36*
X148069500Y-93380000D02*
G01*
X146062500Y-93380000D01*
X146062500Y-91278000D01*
X148069500Y-91278000D01*
X148069500Y-93380000D01*
X148069500Y-93380000D01*
G37*
G36*
X158860442Y-91180518D02*
G01*
X158926627Y-91187037D01*
X159096466Y-91238557D01*
X159252991Y-91322222D01*
X159286718Y-91349901D01*
X159390186Y-91434814D01*
X159473448Y-91536271D01*
X159502778Y-91572009D01*
X159586443Y-91728534D01*
X159637963Y-91898373D01*
X159655359Y-92075000D01*
X159637963Y-92251627D01*
X159586443Y-92421466D01*
X159502778Y-92577991D01*
X159473448Y-92613729D01*
X159390186Y-92715186D01*
X159288729Y-92798448D01*
X159252991Y-92827778D01*
X159096466Y-92911443D01*
X158926627Y-92962963D01*
X158860442Y-92969482D01*
X158794260Y-92976000D01*
X158705740Y-92976000D01*
X158639558Y-92969482D01*
X158573373Y-92962963D01*
X158403534Y-92911443D01*
X158247009Y-92827778D01*
X158211271Y-92798448D01*
X158109814Y-92715186D01*
X158026552Y-92613729D01*
X157997222Y-92577991D01*
X157913557Y-92421466D01*
X157862037Y-92251627D01*
X157844641Y-92075000D01*
X157862037Y-91898373D01*
X157913557Y-91728534D01*
X157997222Y-91572009D01*
X158026552Y-91536271D01*
X158109814Y-91434814D01*
X158213282Y-91349901D01*
X158247009Y-91322222D01*
X158403534Y-91238557D01*
X158573373Y-91187037D01*
X158639558Y-91180518D01*
X158705740Y-91174000D01*
X158794260Y-91174000D01*
X158860442Y-91180518D01*
X158860442Y-91180518D01*
G37*
G36*
X158860443Y-88640519D02*
G01*
X158926627Y-88647037D01*
X159096466Y-88698557D01*
X159252991Y-88782222D01*
X159288729Y-88811552D01*
X159390186Y-88894814D01*
X159473448Y-88996271D01*
X159502778Y-89032009D01*
X159586443Y-89188534D01*
X159637963Y-89358373D01*
X159655359Y-89535000D01*
X159637963Y-89711627D01*
X159586443Y-89881466D01*
X159502778Y-90037991D01*
X159473448Y-90073729D01*
X159390186Y-90175186D01*
X159288729Y-90258448D01*
X159252991Y-90287778D01*
X159096466Y-90371443D01*
X158926627Y-90422963D01*
X158860443Y-90429481D01*
X158794260Y-90436000D01*
X158705740Y-90436000D01*
X158639557Y-90429481D01*
X158573373Y-90422963D01*
X158403534Y-90371443D01*
X158247009Y-90287778D01*
X158211271Y-90258448D01*
X158109814Y-90175186D01*
X158026552Y-90073729D01*
X157997222Y-90037991D01*
X157913557Y-89881466D01*
X157862037Y-89711627D01*
X157844641Y-89535000D01*
X157862037Y-89358373D01*
X157913557Y-89188534D01*
X157997222Y-89032009D01*
X158026552Y-88996271D01*
X158109814Y-88894814D01*
X158211271Y-88811552D01*
X158247009Y-88782222D01*
X158403534Y-88698557D01*
X158573373Y-88647037D01*
X158639557Y-88640519D01*
X158705740Y-88634000D01*
X158794260Y-88634000D01*
X158860443Y-88640519D01*
X158860443Y-88640519D01*
G37*
G36*
X117741000Y-89039000D02*
G01*
X115939000Y-89039000D01*
X115939000Y-87237000D01*
X117741000Y-87237000D01*
X117741000Y-89039000D01*
X117741000Y-89039000D01*
G37*
G36*
X122030442Y-87243518D02*
G01*
X122096627Y-87250037D01*
X122266466Y-87301557D01*
X122422991Y-87385222D01*
X122458729Y-87414552D01*
X122560186Y-87497814D01*
X122643448Y-87599271D01*
X122672778Y-87635009D01*
X122756443Y-87791534D01*
X122807963Y-87961373D01*
X122825359Y-88138000D01*
X122807963Y-88314627D01*
X122756443Y-88484466D01*
X122672778Y-88640991D01*
X122667816Y-88647037D01*
X122560186Y-88778186D01*
X122458729Y-88861448D01*
X122422991Y-88890778D01*
X122266466Y-88974443D01*
X122096627Y-89025963D01*
X122030443Y-89032481D01*
X121964260Y-89039000D01*
X121875740Y-89039000D01*
X121809557Y-89032481D01*
X121743373Y-89025963D01*
X121573534Y-88974443D01*
X121417009Y-88890778D01*
X121381271Y-88861448D01*
X121279814Y-88778186D01*
X121172184Y-88647037D01*
X121167222Y-88640991D01*
X121083557Y-88484466D01*
X121032037Y-88314627D01*
X121014641Y-88138000D01*
X121032037Y-87961373D01*
X121083557Y-87791534D01*
X121167222Y-87635009D01*
X121196552Y-87599271D01*
X121279814Y-87497814D01*
X121381271Y-87414552D01*
X121417009Y-87385222D01*
X121573534Y-87301557D01*
X121743373Y-87250037D01*
X121809558Y-87243518D01*
X121875740Y-87237000D01*
X121964260Y-87237000D01*
X122030442Y-87243518D01*
X122030442Y-87243518D01*
G37*
G36*
X119490442Y-87243518D02*
G01*
X119556627Y-87250037D01*
X119726466Y-87301557D01*
X119882991Y-87385222D01*
X119918729Y-87414552D01*
X120020186Y-87497814D01*
X120103448Y-87599271D01*
X120132778Y-87635009D01*
X120216443Y-87791534D01*
X120267963Y-87961373D01*
X120285359Y-88138000D01*
X120267963Y-88314627D01*
X120216443Y-88484466D01*
X120132778Y-88640991D01*
X120127816Y-88647037D01*
X120020186Y-88778186D01*
X119918729Y-88861448D01*
X119882991Y-88890778D01*
X119726466Y-88974443D01*
X119556627Y-89025963D01*
X119490443Y-89032481D01*
X119424260Y-89039000D01*
X119335740Y-89039000D01*
X119269557Y-89032481D01*
X119203373Y-89025963D01*
X119033534Y-88974443D01*
X118877009Y-88890778D01*
X118841271Y-88861448D01*
X118739814Y-88778186D01*
X118632184Y-88647037D01*
X118627222Y-88640991D01*
X118543557Y-88484466D01*
X118492037Y-88314627D01*
X118474641Y-88138000D01*
X118492037Y-87961373D01*
X118543557Y-87791534D01*
X118627222Y-87635009D01*
X118656552Y-87599271D01*
X118739814Y-87497814D01*
X118841271Y-87414552D01*
X118877009Y-87385222D01*
X119033534Y-87301557D01*
X119203373Y-87250037D01*
X119269558Y-87243518D01*
X119335740Y-87237000D01*
X119424260Y-87237000D01*
X119490442Y-87243518D01*
X119490442Y-87243518D01*
G37*
G36*
X159651000Y-87896000D02*
G01*
X157849000Y-87896000D01*
X157849000Y-86094000D01*
X159651000Y-86094000D01*
X159651000Y-87896000D01*
X159651000Y-87896000D01*
G37*
G36*
X149802719Y-85704520D02*
G01*
X149991880Y-85761901D01*
X149991883Y-85761902D01*
X150084333Y-85811318D01*
X150166212Y-85855083D01*
X150319015Y-85980485D01*
X150444417Y-86133288D01*
X150537599Y-86307619D01*
X150594980Y-86496780D01*
X150609500Y-86644206D01*
X150609500Y-86837793D01*
X150594980Y-86985219D01*
X150537599Y-87174380D01*
X150537598Y-87174383D01*
X150504128Y-87237000D01*
X150444417Y-87348712D01*
X150319015Y-87501515D01*
X150166212Y-87626917D01*
X149991881Y-87720099D01*
X149802720Y-87777480D01*
X149606000Y-87796855D01*
X149409281Y-87777480D01*
X149220120Y-87720099D01*
X149045788Y-87626917D01*
X148892985Y-87501515D01*
X148767583Y-87348712D01*
X148674401Y-87174381D01*
X148617020Y-86985220D01*
X148602500Y-86837794D01*
X148602500Y-86644207D01*
X148617020Y-86496781D01*
X148674401Y-86307620D01*
X148674402Y-86307617D01*
X148723818Y-86215167D01*
X148767583Y-86133288D01*
X148892985Y-85980485D01*
X149045788Y-85855083D01*
X149220119Y-85761901D01*
X149409280Y-85704520D01*
X149606000Y-85685145D01*
X149802719Y-85704520D01*
X149802719Y-85704520D01*
G37*
G36*
X152342719Y-85704520D02*
G01*
X152531880Y-85761901D01*
X152531883Y-85761902D01*
X152624333Y-85811318D01*
X152706212Y-85855083D01*
X152859015Y-85980485D01*
X152984417Y-86133288D01*
X153077599Y-86307619D01*
X153134980Y-86496780D01*
X153149500Y-86644206D01*
X153149500Y-86837793D01*
X153134980Y-86985219D01*
X153077599Y-87174380D01*
X153077598Y-87174383D01*
X153044128Y-87237000D01*
X152984417Y-87348712D01*
X152859015Y-87501515D01*
X152706212Y-87626917D01*
X152531881Y-87720099D01*
X152342720Y-87777480D01*
X152146000Y-87796855D01*
X151949281Y-87777480D01*
X151760120Y-87720099D01*
X151585788Y-87626917D01*
X151432985Y-87501515D01*
X151307583Y-87348712D01*
X151214401Y-87174381D01*
X151157020Y-86985220D01*
X151142500Y-86837794D01*
X151142500Y-86644207D01*
X151157020Y-86496781D01*
X151214401Y-86307620D01*
X151214402Y-86307617D01*
X151263818Y-86215167D01*
X151307583Y-86133288D01*
X151432985Y-85980485D01*
X151585788Y-85855083D01*
X151760119Y-85761901D01*
X151949280Y-85704520D01*
X152146000Y-85685145D01*
X152342719Y-85704520D01*
X152342719Y-85704520D01*
G37*
G36*
X148069500Y-87792000D02*
G01*
X146062500Y-87792000D01*
X146062500Y-85690000D01*
X148069500Y-85690000D01*
X148069500Y-87792000D01*
X148069500Y-87792000D01*
G37*
G36*
X116950443Y-80639519D02*
G01*
X117016627Y-80646037D01*
X117186466Y-80697557D01*
X117342991Y-80781222D01*
X117378729Y-80810552D01*
X117480186Y-80893814D01*
X117563448Y-80995271D01*
X117592778Y-81031009D01*
X117676443Y-81187534D01*
X117727963Y-81357373D01*
X117745359Y-81534000D01*
X117727963Y-81710627D01*
X117676443Y-81880466D01*
X117592778Y-82036991D01*
X117563448Y-82072729D01*
X117480186Y-82174186D01*
X117378729Y-82257448D01*
X117342991Y-82286778D01*
X117186466Y-82370443D01*
X117016627Y-82421963D01*
X116950443Y-82428481D01*
X116884260Y-82435000D01*
X116795740Y-82435000D01*
X116729557Y-82428481D01*
X116663373Y-82421963D01*
X116493534Y-82370443D01*
X116337009Y-82286778D01*
X116301271Y-82257448D01*
X116199814Y-82174186D01*
X116116552Y-82072729D01*
X116087222Y-82036991D01*
X116003557Y-81880466D01*
X115952037Y-81710627D01*
X115934641Y-81534000D01*
X115952037Y-81357373D01*
X116003557Y-81187534D01*
X116087222Y-81031009D01*
X116116552Y-80995271D01*
X116199814Y-80893814D01*
X116301271Y-80810552D01*
X116337009Y-80781222D01*
X116493534Y-80697557D01*
X116663373Y-80646037D01*
X116729557Y-80639519D01*
X116795740Y-80633000D01*
X116884260Y-80633000D01*
X116950443Y-80639519D01*
X116950443Y-80639519D01*
G37*
G36*
X122030443Y-80639519D02*
G01*
X122096627Y-80646037D01*
X122266466Y-80697557D01*
X122422991Y-80781222D01*
X122458729Y-80810552D01*
X122560186Y-80893814D01*
X122643448Y-80995271D01*
X122672778Y-81031009D01*
X122756443Y-81187534D01*
X122807963Y-81357373D01*
X122825359Y-81534000D01*
X122807963Y-81710627D01*
X122756443Y-81880466D01*
X122672778Y-82036991D01*
X122643448Y-82072729D01*
X122560186Y-82174186D01*
X122458729Y-82257448D01*
X122422991Y-82286778D01*
X122266466Y-82370443D01*
X122096627Y-82421963D01*
X122030443Y-82428481D01*
X121964260Y-82435000D01*
X121875740Y-82435000D01*
X121809557Y-82428481D01*
X121743373Y-82421963D01*
X121573534Y-82370443D01*
X121417009Y-82286778D01*
X121381271Y-82257448D01*
X121279814Y-82174186D01*
X121196552Y-82072729D01*
X121167222Y-82036991D01*
X121083557Y-81880466D01*
X121032037Y-81710627D01*
X121014641Y-81534000D01*
X121032037Y-81357373D01*
X121083557Y-81187534D01*
X121167222Y-81031009D01*
X121196552Y-80995271D01*
X121279814Y-80893814D01*
X121381271Y-80810552D01*
X121417009Y-80781222D01*
X121573534Y-80697557D01*
X121743373Y-80646037D01*
X121809557Y-80639519D01*
X121875740Y-80633000D01*
X121964260Y-80633000D01*
X122030443Y-80639519D01*
X122030443Y-80639519D01*
G37*
G36*
X119490443Y-80639519D02*
G01*
X119556627Y-80646037D01*
X119726466Y-80697557D01*
X119882991Y-80781222D01*
X119918729Y-80810552D01*
X120020186Y-80893814D01*
X120103448Y-80995271D01*
X120132778Y-81031009D01*
X120216443Y-81187534D01*
X120267963Y-81357373D01*
X120285359Y-81534000D01*
X120267963Y-81710627D01*
X120216443Y-81880466D01*
X120132778Y-82036991D01*
X120103448Y-82072729D01*
X120020186Y-82174186D01*
X119918729Y-82257448D01*
X119882991Y-82286778D01*
X119726466Y-82370443D01*
X119556627Y-82421963D01*
X119490443Y-82428481D01*
X119424260Y-82435000D01*
X119335740Y-82435000D01*
X119269557Y-82428481D01*
X119203373Y-82421963D01*
X119033534Y-82370443D01*
X118877009Y-82286778D01*
X118841271Y-82257448D01*
X118739814Y-82174186D01*
X118656552Y-82072729D01*
X118627222Y-82036991D01*
X118543557Y-81880466D01*
X118492037Y-81710627D01*
X118474641Y-81534000D01*
X118492037Y-81357373D01*
X118543557Y-81187534D01*
X118627222Y-81031009D01*
X118656552Y-80995271D01*
X118739814Y-80893814D01*
X118841271Y-80810552D01*
X118877009Y-80781222D01*
X119033534Y-80697557D01*
X119203373Y-80646037D01*
X119269557Y-80639519D01*
X119335740Y-80633000D01*
X119424260Y-80633000D01*
X119490443Y-80639519D01*
X119490443Y-80639519D01*
G37*
G36*
X115201000Y-82435000D02*
G01*
X113399000Y-82435000D01*
X113399000Y-80633000D01*
X115201000Y-80633000D01*
X115201000Y-82435000D01*
X115201000Y-82435000D01*
G37*
G36*
X160400239Y-73265467D02*
G01*
X160714282Y-73327934D01*
X161305926Y-73573001D01*
X161838392Y-73928784D01*
X162291216Y-74381608D01*
X162646999Y-74914074D01*
X162892066Y-75505718D01*
X163017000Y-76133804D01*
X163017000Y-76774196D01*
X162892066Y-77402282D01*
X162646999Y-77993926D01*
X162291216Y-78526392D01*
X161838392Y-78979216D01*
X161305926Y-79334999D01*
X160714282Y-79580066D01*
X160400239Y-79642533D01*
X160086197Y-79705000D01*
X159445803Y-79705000D01*
X159131761Y-79642533D01*
X158817718Y-79580066D01*
X158226074Y-79334999D01*
X157693608Y-78979216D01*
X157240784Y-78526392D01*
X156885001Y-77993926D01*
X156639934Y-77402282D01*
X156515000Y-76774196D01*
X156515000Y-76133804D01*
X156639934Y-75505718D01*
X156885001Y-74914074D01*
X157240784Y-74381608D01*
X157693608Y-73928784D01*
X158226074Y-73573001D01*
X158817718Y-73327934D01*
X159131761Y-73265467D01*
X159445803Y-73203000D01*
X160086197Y-73203000D01*
X160400239Y-73265467D01*
X160400239Y-73265467D01*
G37*
G36*
X109600239Y-73265467D02*
G01*
X109914282Y-73327934D01*
X110505926Y-73573001D01*
X111038392Y-73928784D01*
X111491216Y-74381608D01*
X111846999Y-74914074D01*
X112092066Y-75505718D01*
X112217000Y-76133804D01*
X112217000Y-76774196D01*
X112092066Y-77402282D01*
X111846999Y-77993926D01*
X111491216Y-78526392D01*
X111038392Y-78979216D01*
X110505926Y-79334999D01*
X109914282Y-79580066D01*
X109600239Y-79642533D01*
X109286197Y-79705000D01*
X108645803Y-79705000D01*
X108331761Y-79642533D01*
X108017718Y-79580066D01*
X107426074Y-79334999D01*
X106893608Y-78979216D01*
X106440784Y-78526392D01*
X106085001Y-77993926D01*
X105839934Y-77402282D01*
X105715000Y-76774196D01*
X105715000Y-76133804D01*
X105839934Y-75505718D01*
X106085001Y-74914074D01*
X106440784Y-74381608D01*
X106893608Y-73928784D01*
X107426074Y-73573001D01*
X108017718Y-73327934D01*
X108331761Y-73265467D01*
X108645803Y-73203000D01*
X109286197Y-73203000D01*
X109600239Y-73265467D01*
X109600239Y-73265467D01*
G37*
M02*
